<?xml version="1.0" standalone="no"?>
<!DOCTYPE svg PUBLIC "-//W3C//DTD SVG 1.1//EN" "http://www.w3.org/Graphics/SVG/1.1/DTD/svg11.dtd" >
<svg xmlns="http://www.w3.org/2000/svg" xmlns:xlink="http://www.w3.org/1999/xlink" version="1.1">
<metadata>
Created by FontForge 20200314 at Sat Nov  7 05:38:09 2015
 By Unknown
Copyright (c) 2013 Swiss Typefaces Sa`rl. All rights reserved.
</metadata>
<defs>
<font id="SuisseIntlMono" horiz-adv-x="646" >
  <font-face 
    font-family="Suisse Int'l Mono"
    font-weight="400"
    font-stretch="normal"
    units-per-em="1000"
    panose-1="2 11 5 9 0 0 0 0 0 0"
    ascent="774"
    descent="-226"
    x-height="538"
    cap-height="725"
    bbox="-13 -221 696 921"
    underline-thickness="70"
    underline-position="-110"
    unicode-range="U+000D-FB02"
  />
<missing-glyph 
d="M73 0v725h500v-725h-500zM312 362l-220 334v-667zM333 362l221 -333v667zM323 346l-217 -327h433zM106 706l217 -328l216 328h-433z" />
    <glyph glyph-name=".notdef" 
d="M73 0v725h500v-725h-500zM312 362l-220 334v-667zM333 362l221 -333v667zM323 346l-217 -327h433zM106 706l217 -328l216 328h-433z" />
    <glyph glyph-name=".null" 
 />
    <glyph glyph-name="nonmarkingreturn" horiz-adv-x="333" 
 />
    <glyph glyph-name="CR" unicode="&#xd;" 
 />
    <glyph glyph-name="space" unicode=" " 
 />
    <glyph glyph-name="exclam" unicode="!" 
d="M351 212h-58l-18 294v219h96v-219zM380 0h-115v115h115v-115z" />
    <glyph glyph-name="quotedbl" unicode="&#x22;" 
d="M195 725h102l-20 -253h-62zM349 725h102l-20 -253h-62z" />
    <glyph glyph-name="numbersign" unicode="#" 
d="M70 527h141l27 198h74l-27 -198h124l27 198h74l-27 -198h135l-10 -71h-135l-23 -163h134l-9 -71h-135l-30 -222h-74l30 222h-124l-30 -222h-74l30 222h-141l10 71h141l23 163h-141zM275 456l-23 -163h124l23 163h-124z" />
    <glyph glyph-name="dollar" unicode="$" 
d="M299 822h55v-86q83 -9 141.5 -60t67.5 -141h-94q-10 103 -115 123v-241l5 -1q44 -11 74.5 -24t65 -36.5t53 -61.5t18.5 -90q0 -97 -60 -153t-156 -63v-85h-55v86q-100 9 -163 74.5t-66 166.5h94q10 -144 135 -163v268l-33 9q-72 18 -123.5 68.5t-51.5 128.5
q0 90 60.5 139.5t147.5 56.5v85zM477 195q0 94 -123 126v-255q57 6 90 42t33 87zM185 548q0 -45 28 -73.5t74 -40.5l12 -3v229q-46 -5 -80 -31t-34 -81z" />
    <glyph glyph-name="percent" unicode="%" 
d="M171 378q-68 0 -103.5 48.5t-35.5 131.5q0 84 35.5 132t103.5 48q69 0 104.5 -48t35.5 -132q0 -83 -35.5 -131.5t-104.5 -48.5zM171 439q69 0 69 119t-69 119q-68 0 -68 -119t68 -119zM113 0h-79l500 725h80zM472 -13q-69 0 -104.5 48.5t-35.5 132.5t35.5 132t104.5 48
q68 0 103.5 -48t35.5 -132q0 -83 -35.5 -132t-103.5 -49zM472 48q68 0 68 120q0 118 -68 118q-69 0 -69 -118q0 -120 69 -120z" />
    <glyph glyph-name="ampersand" unicode="&#x26;" 
d="M252 -13q-105 0 -163.5 63.5t-58.5 150.5q0 73 41.5 127.5t109.5 83.5q-58 86 -58 164q0 72 52.5 117t123.5 45t123 -38.5t52 -117.5q0 -123 -154 -193l117 -146q16 59 14 148h85q3 -127 -37 -225l134 -166h-121l-63 78q-75 -91 -197 -91zM258 67q86 0 138 77l-168 209
q-101 -51 -101 -150q0 -61 38 -98.5t93 -37.5zM216 576q0 -57 55 -127q116 52 116 129q0 39 -25.5 60t-60.5 21q-34 0 -59.5 -21.5t-25.5 -61.5z" />
    <glyph glyph-name="quotesingle" unicode="'" 
d="M272 725h102l-20 -253h-62z" />
    <glyph glyph-name="parenleft" unicode="(" 
d="M216 275q0 137 41 253.5t96 196.5h76q-120 -195 -120 -450t120 -450h-76q-55 80 -96 196.5t-41 253.5z" />
    <glyph glyph-name="parenright" unicode=")" 
d="M430 275q0 -137 -41 -253t-97 -197h-75q119 196 119 450t-119 450h75q56 -81 97 -197t41 -253z" />
    <glyph glyph-name="asterisk" unicode="*" 
d="M352 725v-120l113 43l23 -56l-115 -39l69 -97l-46 -36l-74 101l-68 -101l-53 35l70 98l-113 39l20 56l113 -43v120h61z" />
    <glyph glyph-name="plus" unicode="+" 
d="M369 0h-92v226h-226v86h226v226h92v-226h226v-86h-226v-226z" />
    <glyph glyph-name="comma" unicode="," 
d="M265 0v115h115v-123l-61 -131h-58l53 139h-49z" />
    <glyph glyph-name="hyphen" unicode="-" 
d="M482 231h-318v86h318v-86z" />
    <glyph glyph-name="period" unicode="." 
d="M380 0h-115v115h115v-115z" />
    <glyph glyph-name="slash" unicode="/" 
d="M226 0h-91l285 725h91z" />
    <glyph glyph-name="zero" unicode="0" 
d="M322 -13q-253 0 -253 379q0 372 253 372q254 0 254 -372q0 -178 -61 -278.5t-193 -100.5zM162 366q0 -25 1 -37l313 143q-24 188 -154 188q-82 0 -121 -72.5t-39 -221.5zM322 66q161 0 161 300q0 21 -1 32l-313 -145q26 -187 153 -187z" />
    <glyph glyph-name="one" unicode="1" 
d="M327 725h60v-646h152v-79h-429v79h185v488h-185v63q98 2 144.5 20.5t72.5 74.5z" />
    <glyph glyph-name="two" unicode="2" 
d="M334 738q98 0 160 -52.5t62 -142.5q0 -60 -26.5 -120.5t-79.5 -121t-107 -109.5t-134 -113h360v-79h-489v79q195 152 286.5 256.5t91.5 195.5q0 58 -32.5 93.5t-92.5 35.5q-62 0 -103.5 -40.5t-42.5 -124.5h-94q-2 105 65 174t176 69z" />
    <glyph glyph-name="three" unicode="3" 
d="M320 66q70 0 112.5 36.5t42.5 100.5q0 72 -54 105.5t-144 33.5h-14v81h11q183 0 183 123q0 53 -38 83.5t-96 30.5q-67 0 -105.5 -38.5t-43.5 -101.5h-94q8 97 74.5 157.5t171.5 60.5q97 0 163 -45t66 -138q0 -56 -29.5 -101t-83.5 -67q131 -45 131 -183
q0 -102 -75 -159.5t-179 -57.5q-114 0 -178 66.5t-71 162.5h93q8 -69 47.5 -109.5t109.5 -40.5z" />
    <glyph glyph-name="four" unicode="4" 
d="M385 601l-246 -336h246v336zM598 265v-86h-121v-179h-92v179h-342v86l341 460h93v-460h121z" />
    <glyph glyph-name="five" unicode="5" 
d="M322 66q65 0 109 46t44 126q0 82 -46 124t-109 42q-48 0 -83.5 -23t-48.5 -53l-96 4l47 393h402v-78h-324l-26 -217q55 54 150 54t163.5 -66t68.5 -179q0 -117 -74.5 -184.5t-177.5 -67.5q-114 0 -178 66.5t-71 162.5h93q8 -69 47.5 -109.5t109.5 -40.5z" />
    <glyph glyph-name="six" unicode="6" 
d="M176 232q0 -75 41 -120.5t109 -45.5q66 0 108.5 46.5t42.5 119.5t-42 120.5t-108 47.5q-67 0 -109 -47.5t-42 -120.5zM340 660q-81 0 -126 -75t-48 -202q55 99 182 99q97 0 162 -69.5t65 -176.5q0 -103 -70 -176t-178 -73q-127 0 -191.5 90t-64.5 257q0 80 15.5 150
t46.5 128t85.5 92t126.5 34q95 0 150.5 -52t67.5 -127h-99q-8 48 -41 74.5t-83 26.5z" />
    <glyph glyph-name="seven" unicode="7" 
d="M82 647v78h509v-78q-140 -108 -224 -279t-89 -368h-105q12 194 94.5 367.5t211.5 279.5h-397z" />
    <glyph glyph-name="eight" unicode="8" 
d="M323 738q105 0 170 -52.5t65 -132.5q0 -48 -23.5 -93.5t-71.5 -72.5q62 -27 89.5 -77t27.5 -106q0 -99 -73.5 -158t-183.5 -59t-183.5 59t-73.5 158q0 57 27 106.5t90 76.5q-48 27 -72 72.5t-24 93.5q0 80 65.5 132.5t170.5 52.5zM323 346q-72 0 -116 -39.5t-44 -102.5
t43.5 -100.5t116.5 -37.5t116 37.5t43 100.5t-43.5 102.5t-115.5 39.5zM466 544q0 55 -38.5 85t-104.5 30q-65 0 -104 -31t-39 -84q0 -55 39.5 -91t103.5 -36t103.5 36t39.5 91z" />
    <glyph glyph-name="nine" unicode="9" 
d="M469 493q0 75 -40.5 121t-108.5 46q-67 0 -109 -46.5t-42 -120.5q0 -73 41.5 -120t107.5 -47q68 0 109.5 47t41.5 120zM307 66q80 0 125 75t48 202q-55 -99 -182 -99q-97 0 -162 69.5t-65 175.5q0 103 68.5 176t178.5 73q129 0 193 -89.5t64 -257.5q0 -80 -15 -149.5
t-46 -128t-85.5 -92.5t-126.5 -34q-94 0 -151 52t-69 127h100q8 -48 41 -74t84 -26z" />
    <glyph glyph-name="colon" unicode=":" 
d="M380 423h-115v115h115v-115zM380 0h-115v115h115v-115z" />
    <glyph glyph-name="semicolon" unicode=";" 
d="M380 423h-115v115h115v-115zM265 0v115h115v-123l-61 -131h-58l53 139h-49z" />
    <glyph glyph-name="less" unicode="&#x3c;" 
d="M56 307l514 227v-98l-400 -168l400 -165v-97l-514 223v78z" />
    <glyph glyph-name="equal" unicode="=" 
d="M574 327h-502v87h502v-87zM574 124h-502v86h502v-86z" />
    <glyph glyph-name="greater" unicode="&#x3e;" 
d="M590 307v-78l-514 -223v97l400 165l-400 168v98z" />
    <glyph glyph-name="question" unicode="?" 
d="M179 520h-93q1 97 70.5 157.5t176.5 60.5q93 0 159.5 -45t66.5 -131q0 -116 -136 -199q-49 -30 -66.5 -53t-17.5 -63v-35h-91v38q0 60 27 97.5t93 79.5q46 29 69.5 58t23.5 74q0 46 -36 72.5t-94 26.5q-76 0 -112.5 -41.5t-39.5 -96.5zM352 0h-115v115h115v-115z" />
    <glyph glyph-name="at" unicode="@" 
d="M472 156q-31 0 -53 24.5t-27 68.5q-36 -90 -119 -90q-50 0 -83.5 47t-33.5 136q0 92 45 163.5t116 71.5q32 0 56 -21t36 -56l6 60h56l-24 -220q-10 -122 35 -122q30 0 52.5 54.5t22.5 135.5q0 124 -61 197.5t-160 73.5q-107 0 -176 -95.5t-69 -229.5q0 -127 58.5 -214.5
t155.5 -87.5q94 0 153 39l24 -59q-78 -45 -177 -45q-123 0 -200 105t-77 264q0 161 89 271.5t221 110.5q121 0 200 -84t79 -242q0 -116 -43.5 -186t-101.5 -70zM318 511q-41 0 -68 -52.5t-27 -117.5q0 -54 18 -86t50 -32q43 0 69.5 53.5t26.5 123.5q0 48 -18.5 79.5
t-50.5 31.5z" />
    <glyph glyph-name="A" unicode="A" 
d="M374 725l238 -725h-102l-49 155h-277l-48 -155h-102l238 725h102zM323 598l-111 -354h221z" />
    <glyph glyph-name="B" unicode="B" 
d="M100 0v725h214q238 0 238 -179q0 -52 -19 -95t-53 -64q99 -46 99 -172q0 -109 -68.5 -162t-174.5 -53h-236zM195 332v-242h149q137 0 137 124q0 63 -34.5 90.5t-109.5 27.5h-142zM195 635v-218h139q123 0 123 115q0 103 -123 103h-139z" />
    <glyph glyph-name="C" unicode="C" 
d="M483 225h95q-18 -115 -85 -176.5t-167 -61.5q-128 0 -194 102.5t-66 274.5t70 273.5t197 101.5q93 0 159 -66.5t84 -177.5h-97q-10 68 -47 111.5t-102 43.5q-79 0 -122.5 -74t-43.5 -212q0 -136 43 -212.5t125 -76.5q66 0 103.5 40.5t47.5 109.5z" />
    <glyph glyph-name="D" unicode="D" 
d="M493 363q0 71 -16.5 122.5t-41.5 80t-64.5 44.5t-74 20.5t-81.5 4.5h-26v-545h26q47 0 81.5 4.5t74 21t64.5 45t41.5 80t16.5 122.5zM94 725h124q372 0 372 -362q0 -100 -28.5 -172.5t-81 -113t-117 -59t-145.5 -18.5h-124v725z" />
    <glyph glyph-name="E" unicode="E" 
d="M112 0v725h432v-90h-337v-216h317v-90h-317v-239h337v-90h-432z" />
    <glyph glyph-name="F" unicode="F" 
d="M130 0v725h446v-90h-351v-216h332v-90h-332v-329h-95z" />
    <glyph glyph-name="G" unicode="G" 
d="M325 650q-86 0 -130.5 -73.5t-44.5 -212.5q0 -138 43.5 -213.5t131.5 -75.5q169 0 169 188v23h-167v90h254v-376h-72l-4 91q-32 -55 -75.5 -79.5t-108.5 -24.5q-135 0 -202 102t-67 275t71.5 273.5t206.5 100.5q101 0 166.5 -63t82.5 -174h-98q-21 149 -156 149z" />
    <glyph glyph-name="H" unicode="H" 
d="M463 726h95v-726h-95v329h-280v-329h-95v726h95v-307h280v307z" />
    <glyph glyph-name="I" unicode="I" 
d="M92 635v90h461v-90h-183v-545h183v-90h-461v90h183v545h-183z" />
    <glyph glyph-name="J" unicode="J" 
d="M146 725h374v-495q0 -243 -211 -243q-98 0 -157 63.5t-59 173.5h95q0 -150 121 -150q58 0 87 32.5t29 124.5v404h-279v90z" />
    <glyph glyph-name="K" unicode="K" 
d="M203 725v-347l259 347h112l-219 -283l247 -442h-109l-200 362l-90 -116v-246h-95v725h95z" />
    <glyph glyph-name="L" unicode="L" 
d="M220 725v-635h356v-90h-451v725h95z" />
    <glyph glyph-name="M" unicode="M" 
d="M371 250h-96l-106 382v-632h-95v725h149l100 -371l100 371h149v-725h-95v632z" />
    <glyph glyph-name="N" unicode="N" 
d="M557 0h-142l-232 619v-619h-95v725h142l232 -617v617h95v-725z" />
    <glyph glyph-name="O" unicode="O" 
d="M323 738q132 0 201.5 -102.5t69.5 -272.5t-69.5 -273t-201.5 -103t-201.5 103t-69.5 273t69.5 272.5t201.5 102.5zM323 650q-173 0 -173 -287q0 -288 173 -288t173 288q0 287 -173 287z" />
    <glyph glyph-name="P" unicode="P" 
d="M121 725h178q64 0 111.5 -10t87.5 -34t61 -69t21 -110t-21 -110t-61 -69t-87.5 -34t-111.5 -10h-83v-279h-95v725zM311 635h-95v-266h95q85 0 128 26t43 107t-43 107t-128 26z" />
    <glyph glyph-name="Q" unicode="Q" 
d="M322 739q132 0 201.5 -103t69.5 -273t-68 -271l70 -78l-55 -62l-72 80q-62 -45 -146 -45q-132 0 -201.5 103t-69.5 273t69.5 273t201.5 103zM322 650q-173 0 -173 -287q0 -288 173 -288q50 0 85 24l-68 76l56 63l65 -74q35 71 35 199q0 287 -173 287z" />
    <glyph glyph-name="R" unicode="R" 
d="M481 0l-142 306q-17 -1 -53 -1h-82v-305h-95v725h177q65 0 111.5 -8.5t87 -30t61 -63.5t20.5 -105q0 -153 -131 -194l154 -324h-108zM297 635h-93v-240h93q42 0 68 3.5t52.5 15t38.5 37t12 65.5q0 33 -9 55.5t-22.5 35t-38 19t-46 8t-55.5 1.5z" />
    <glyph glyph-name="S" unicode="S" 
d="M265 342q-79 17 -131 66.5t-52 130.5q0 91 68.5 145t169.5 54q92 0 161 -51.5t80 -152.5h-94q-8 60 -51.5 88t-100.5 28q-55 0 -95 -27.5t-40 -80.5q0 -84 105 -108l72 -16q102 -23 160.5 -71.5t58.5 -143.5q0 -99 -69 -157.5t-176 -58.5q-111 0 -183.5 65.5t-78.5 173.5
h94q7 -72 53.5 -111.5t117.5 -39.5q59 0 102.5 31.5t43.5 89.5q0 96 -136 127z" />
    <glyph glyph-name="T" unicode="T" 
d="M275 0v635h-218v90h531v-90h-218v-635h-95z" />
    <glyph glyph-name="U" unicode="U" 
d="M79 725h95v-441q0 -113 30 -161t118 -48q89 0 119.5 52t30.5 168v430h95v-422q0 -165 -54 -240.5t-191 -75.5q-135 0 -189 69t-54 239v430z" />
    <glyph glyph-name="V" unicode="V" 
d="M272 0l-228 725h102l176 -598l177 598h102l-228 -725h-101z" />
    <glyph glyph-name="W" unicode="W" 
d="M374 504l80 -366l54 587h95l-73 -725h-123l-84 378l-84 -378h-124l-72 725h95l53 -587l80 366h103z" />
    <glyph glyph-name="X" unicode="X" 
d="M33 0l237 382l-210 343h110l155 -254l158 254h104l-210 -339l236 -386h-109l-182 297l-184 -297h-105z" />
    <glyph glyph-name="Y" unicode="Y" 
d="M323 370l186 355h111l-250 -453v-272h-95v272l-250 453h111z" />
    <glyph glyph-name="Z" unicode="Z" 
d="M557 725v-90l-372 -545h376v-90h-485v90l373 545h-343v90h451z" />
    <glyph glyph-name="bracketleft" unicode="[" 
d="M211 725h224v-77h-136v-746h136v-77h-224v900z" />
    <glyph glyph-name="backslash" unicode="\" 
d="M226 725l285 -725h-91l-285 725h91z" />
    <glyph glyph-name="bracketright" unicode="]" 
d="M211 725h224v-900h-224v77h136v746h-136v77z" />
    <glyph glyph-name="asciicircum" unicode="^" 
d="M359 725l206 -387h-98l-147 273l-143 -273h-96l201 387h77z" />
    <glyph glyph-name="underscore" unicode="_" 
d="M519 -86h-393v86h393v-86z" />
    <glyph glyph-name="grave" unicode="`" 
d="M349 609l-130 116h116l91 -116h-77z" />
    <glyph glyph-name="a" unicode="a" 
d="M269 -13q-75 0 -125 41t-50 112q0 47 23.5 80t73 54.5t110 34t149.5 22.5v23q0 121 -121 121q-118 0 -128 -107h-94q6 84 70.5 132.5t152.5 48.5q112 0 162.5 -51.5t48.5 -163.5l-1 -131q-1 -105 7 -203h-88l-1 79q-54 -92 -189 -92zM457 243v15q-136 -13 -200 -37.5
t-64 -78.5q0 -38 26.5 -59.5t75.5 -21.5q71 0 116.5 41.5t45.5 140.5z" />
    <glyph glyph-name="b" unicode="b" 
d="M202 725v-268q54 90 160 90q95 0 155.5 -75t60.5 -205t-60.5 -205t-155.5 -75q-106 0 -160 89l-1 -76h-91v725h92zM198 267q0 -101 41 -152.5t103 -51.5q69 0 104 53t35 151q0 97 -35 150t-104 53q-62 0 -103 -51t-41 -152z" />
    <glyph glyph-name="c" unicode="c" 
d="M333 547q90 0 150 -56t66 -132h-93q-9 50 -43.5 81t-83.5 31q-63 0 -104.5 -53.5t-41.5 -150.5q0 -99 41.5 -152t104.5 -53q52 0 86.5 32t44.5 79h95q-11 -81 -76 -133.5t-155 -52.5q-110 0 -174 77.5t-64 202.5q0 123 67 201.5t180 78.5z" />
    <glyph glyph-name="d" unicode="d" 
d="M444 457v268h92v-725h-91l-1 76q-52 -89 -159 -89q-96 0 -156.5 75t-60.5 205t61 205t156 75q107 0 159 -90zM448 267q0 101 -41 152t-103 51q-68 0 -103.5 -53t-35.5 -150t35.5 -150.5t103.5 -53.5q62 0 103 52t41 152z" />
    <glyph glyph-name="e" unicode="e" 
d="M326 -13q-118 0 -181 77.5t-63 202.5q0 128 68 204.5t176 76.5q118 0 181.5 -81.5t58.5 -225.5h-387q0 -80 40.5 -129.5t104.5 -49.5q108 0 139 99h95q-17 -78 -78.5 -126t-153.5 -48zM326 472q-67 0 -105 -39t-41 -116h288q1 68 -36.5 111.5t-105.5 43.5z" />
    <glyph glyph-name="f" unicode="f" 
d="M220 538v39q0 86 29 117t114 31h190v-78h-188q-33 0 -43 -13.5t-10 -56.5v-39h241v-79h-241v-459h-92v459h-143v79h143z" />
    <glyph glyph-name="g" unicode="g" 
d="M446 457v81h92v-471q0 -79 -10 -120.5t-33 -68.5q-28 -33 -79 -52t-109 -19q-89 0 -146.5 42t-69.5 120h97q11 -40 37.5 -61t82.5 -21q76 0 110 40q28 33 28 119v52q-51 -89 -159 -89q-97 0 -157 70t-60 199t60.5 199t156.5 70q107 0 159 -90zM450 278q0 100 -40 146
t-104 46q-139 0 -139 -192q0 -193 139 -193q63 0 103.5 47t40.5 146z" />
    <glyph glyph-name="h" unicode="h" 
d="M365 547q92 0 130 -54t38 -151v-342h-92v310q0 31 -1.5 50.5t-7 42.5t-16.5 36t-31.5 22t-49.5 9q-62 0 -95.5 -46t-33.5 -132v-292h-92v725h92v-263q51 85 159 85z" />
    <glyph glyph-name="i" unicode="i" 
d="M286 725h92v-109h-92v109zM134 538h244v-459h153v-79h-397v79h152v380h-152v79z" />
    <glyph glyph-name="j" unicode="j" 
d="M183 538h227v-565q0 -85 -27 -116.5t-101 -31.5h-144v79h125q34 0 44.5 12.5t10.5 54.5v488h-135v79zM318 725h92v-109h-92v109z" />
    <glyph glyph-name="k" unicode="k" 
d="M121 725h92v-432l238 245h118l-211 -209l232 -329h-105l-189 268l-83 -82v-186h-92v725z" />
    <glyph glyph-name="l" unicode="l" 
d="M128 725h244v-646h153v-79h-397v79h152v568h-152v78z" />
    <glyph glyph-name="m" unicode="m" 
d="M350 479q37 68 107 68q50 0 80.5 -35.5t30.5 -132.5v-379h-92v332v38t-1.5 31.5t-4.5 29t-8 20.5t-13 15t-19 4q-33 0 -46.5 -39.5t-13.5 -125.5v-305h-92v332v28.5t-0.5 25.5t-2 24t-3.5 20t-5 17.5t-8 11.5t-11.5 8.5t-14.5 2.5q-34 0 -47.5 -40t-13.5 -127v-303h-92
v538h88v-57q34 66 98 66q61 0 84 -68z" />
    <glyph glyph-name="n" unicode="n" 
d="M206 538v-76q50 85 158 85q92 0 130.5 -54t38.5 -151v-342h-92v310q0 31 -1.5 50.5t-7.5 42.5t-17 36t-31.5 21.5t-49.5 8.5q-62 0 -95 -45.5t-33 -131.5v-292h-92v538h92z" />
    <glyph glyph-name="o" unicode="o" 
d="M171 267q0 -102 43 -152.5t109 -50.5t109 50.5t43 152.5t-43 152.5t-109 50.5t-109 -50.5t-43 -152.5zM74 267q0 137 73.5 208.5t175.5 71.5t175.5 -71.5t73.5 -208.5t-73.5 -208.5t-175.5 -71.5t-175.5 71.5t-73.5 208.5z" />
    <glyph glyph-name="p" unicode="p" 
d="M202 538v-81q52 90 159 90q95 0 156 -75t61 -205t-60.5 -205t-156.5 -75q-107 0 -159 89v-251h-92v713h92zM198 267q0 -101 41 -152.5t103 -51.5q68 0 103.5 53.5t35.5 150.5t-35.5 150t-103.5 53q-62 0 -103 -51t-41 -152z" />
    <glyph glyph-name="q" unicode="q" 
d="M445 457v81h92v-713h-92v251q-54 -89 -160 -89q-95 0 -155.5 75t-60.5 205t60.5 205t155.5 75q106 0 160 -90zM449 267q0 101 -41 152t-103 51q-69 0 -104 -53t-35 -150t35 -150t104 -53q62 0 103 51t41 152z" />
    <glyph glyph-name="r" unicode="r" 
d="M86 538h243v-96q20 45 57.5 70.5t86.5 25.5h92v-84h-91q-143 0 -143 -186v-189h184v-79h-428v79h152v380h-153v79z" />
    <glyph glyph-name="s" unicode="s" 
d="M530 391h-96q-16 80 -120 80q-45 0 -76.5 -17.5t-31.5 -51.5q0 -30 20 -46.5t61 -25.5l60 -12q31 -6 56 -13t51.5 -20t44.5 -29.5t29.5 -42t11.5 -56.5q0 -82 -61 -126t-154 -44q-98 0 -155 51.5t-65 122.5h97q19 -98 125 -98q50 0 85 20t35 63q0 67 -113 87l-67 13
q-152 30 -152 152q0 72 63 110.5t140 38.5q85 0 141 -41.5t71 -114.5z" />
    <glyph glyph-name="t" unicode="t" 
d="M197 538v135h92v-135h220v-79h-220v-311q0 -44 8.5 -56.5t45.5 -12.5h166v-79h-186q-75 0 -100.5 26t-25.5 109v324h-153v79h153z" />
    <glyph glyph-name="u" unicode="u" 
d="M439 0v69q-52 -82 -158 -82q-92 0 -129.5 53.5t-37.5 151.5v346h92v-314q0 -31 1.5 -50.5t7 -42.5t16.5 -35.5t31 -21t49 -8.5q62 0 95 45t33 131v296h92v-538h-92z" />
    <glyph glyph-name="v" unicode="v" 
d="M188 538l139 -412l138 412h96l-194 -538h-88l-194 538h103z" />
    <glyph glyph-name="w" unicode="w" 
d="M279 430h86l80 -290l55 398h93l-90 -538h-93l-88 325l-88 -325h-93l-90 538h94l54 -398z" />
    <glyph glyph-name="x" unicode="x" 
d="M551 538l-177 -261l188 -277h-104l-135 200l-135 -200h-104l187 276l-176 262h103l125 -185l126 185h102z" />
    <glyph glyph-name="y" unicode="y" 
d="M183 -175h-106v79h97q44 0 63 14.5t39 69.5l4 12l-201 538h101l146 -415l143 415h95l-199 -561q-31 -86 -66 -119t-116 -33z" />
    <glyph glyph-name="z" unicode="z" 
d="M104 0v79l327 380h-308v79h420v-79l-327 -380h332v-79h-444z" />
    <glyph glyph-name="braceleft" unicode="{" 
d="M410 -175q-88 0 -116.5 31t-28.5 117v162q0 53 -15 78t-61 25v74q46 0 61 25t15 78v162q0 86 28.5 117t116.5 31h48v-77h-46q-35 0 -45.5 -13.5t-10.5 -56.5v-165q0 -66 -20.5 -96t-63.5 -41v-2q43 -11 63.5 -41t20.5 -96v-165q0 -43 10.5 -56.5t45.5 -13.5h46v-77h-48z
" />
    <glyph glyph-name="bar" unicode="|" 
d="M282 725h82v-815h-82v815z" />
    <glyph glyph-name="braceright" unicode="}" 
d="M188 -175v77h45q35 0 45.5 13.5t10.5 56.5v165q0 66 20.5 96t63.5 41v2q-43 11 -63.5 41t-20.5 96v165q0 43 -10.5 56.5t-45.5 13.5h-45v77h47q88 0 116.5 -31t28.5 -117v-162q0 -53 15 -78t62 -25v-74q-47 0 -62 -25t-15 -78v-162q0 -86 -28.5 -117t-116.5 -31h-47z" />
    <glyph glyph-name="asciitilde" unicode="~" 
d="M436 286q28 0 47 18.5t22 50.5h85q-5 -66 -46 -107t-108 -41q-43 0 -118.5 34t-107.5 34q-29 0 -48 -18t-21 -50h-85q4 66 45.5 107t108.5 41q52 0 126 -34.5t100 -34.5z" />
    <glyph glyph-name="uni00A0" unicode="&#xa0;" 
 />
    <glyph glyph-name="exclamdown" unicode="&#xa1;" 
d="M294 327h57l20 -294v-208h-96v208zM380 423h-115v115h115v-115z" />
    <glyph glyph-name="cent" unicode="&#xa2;" 
d="M300 628h46v-81q85 -4 141 -59.5t62 -128.5h-93q-8 45 -38 75.5t-72 35.5v-407q45 5 75 36t39 74h95q-10 -76 -68.5 -127t-140.5 -58v-85h-46v85q-100 9 -157 85t-57 194q0 113 57.5 189.5t156.5 88.5v83zM183 267q0 -86 32.5 -138t84.5 -64v403q-52 -12 -84.5 -64
t-32.5 -137z" />
    <glyph glyph-name="sterling" unicode="&#xa3;" 
d="M338 659q-55 0 -97 -27t-42 -84q0 -24 9.5 -53.5t16.5 -43t27 -51.5h194v-65h-165q15 -40 15 -74q0 -54 -30.5 -96.5t-75.5 -68.5l1 -2q37 13 68 13q27 0 83.5 -19.5t94.5 -19.5q55 0 120 27l27 -79q-58 -33 -139 -33q-38 0 -103.5 20t-105.5 20q-74 0 -146 -40l-30 73
q47 19 93.5 70t46.5 120q0 41 -19 89h-120v65h89q-48 94 -48 152q0 63 37 106.5t89.5 61.5t113.5 18q114 0 179 -65t63 -172h-94q-1 84 -42.5 121t-109.5 37z" />
    <glyph glyph-name="currency" unicode="&#xa4;" 
d="M83 346q0 78 44 139l-69 70l49 49l68 -68q63 49 144 49q83 0 147 -51l71 70l49 -49l-72 -71q44 -61 44 -138q0 -76 -44 -137l72 -71l-49 -49l-71 70q-65 -49 -147 -49q-79 0 -143 48l-69 -69l-49 49l69 70q-44 61 -44 138zM166 346q0 -68 43 -114.5t109 -46.5
q70 0 115 46.5t45 114.5q0 70 -45 117.5t-115 47.5q-66 0 -109 -47.5t-43 -117.5z" />
    <glyph glyph-name="yen" unicode="&#xa5;" 
d="M323 370l186 355h111l-227 -410h141v-64h-164v-76h164v-64h-164v-111h-95v111h-167v64h167v76h-167v64h143l-226 410h111z" />
    <glyph glyph-name="brokenbar" unicode="&#xa6;" 
d="M282 725h82v-305h-82v305zM282 215h82v-305h-82v305z" />
    <glyph glyph-name="section" unicode="&#xa7;" 
d="M320 -109q48 0 78 21t30 57q0 32 -20.5 58t-75.5 56l-130 69q-133 72 -133 175q0 48 33 84t86 56q-70 52 -70 127q0 67 58 105.5t137 38.5q89 0 144 -43.5t66 -123.5h-94q-8 45 -40.5 68t-79.5 23q-44 0 -71 -18t-27 -45t17.5 -46t63.5 -44l137 -72q74 -39 110.5 -77
t36.5 -96q0 -52 -31.5 -93t-85.5 -67q62 -52 62 -121q0 -78 -58.5 -123.5t-144.5 -45.5q-93 0 -151.5 50.5t-66.5 134.5h94q16 -108 126 -108zM382 363l-119 62q-104 -29 -104 -92q0 -30 18.5 -53.5t60.5 -46.5l137 -74q2 -1 9.5 -5t10.5 -6q90 42 90 101q0 33 -24 59
t-79 55z" />
    <glyph glyph-name="dieresis" unicode="&#xa8;" 
d="M163 609v99h91v-99h-91zM392 708h91v-99h-91v99z" />
    <glyph glyph-name="copyright" unicode="&#xa9;" 
d="M44 457q0 123 80.5 202t198.5 79q117 0 198 -79.5t81 -201.5t-81 -200t-198 -78q-118 0 -198.5 78t-80.5 200zM93 457q0 -103 65.5 -168t164.5 -65q100 0 164 64.5t64 168.5t-64 170t-164 66q-99 0 -164.5 -66t-65.5 -170zM322 355q62 0 78 57l57 -15q-15 -39 -49 -64.5
t-86 -25.5q-68 0 -105.5 42t-37.5 116q0 72 39 113.5t106 41.5q52 0 85 -26.5t44 -69.5l-55 -15q-15 63 -76 63q-36 0 -58.5 -27t-22.5 -80t22.5 -81.5t58.5 -28.5z" />
    <glyph glyph-name="ordfeminine" unicode="&#xaa;" 
d="M264 637l-69 2q4 45 38.5 72t94.5 27q66 0 97 -27.5t30 -87.5q-2 -54 -2 -90q0 -51 6 -103h-67l-3 34q-29 -42 -95 -42q-50 0 -79.5 29t-29.5 69q0 42 30 65q34 24 112 32l55 6v11q0 51 -57 51q-58 0 -61 -48zM384 553v19l-55 -7q-70 -7 -70 -45q0 -18 14 -30t37 -12
q32 0 53 19t21 56z" />
    <glyph glyph-name="guillemotleft" unicode="&#xab;" 
d="M231 44l-159 229l159 228h98l-150 -228l150 -229h-98zM453 44l-159 229l159 228h98l-150 -228l150 -229h-98z" />
    <glyph glyph-name="logicalnot" unicode="&#xac;" 
d="M477 344h-430v86h522v-332h-92v246z" />
    <glyph glyph-name="uni00AD" unicode="&#xad;" 
d="M482 231h-318v86h318v-86z" />
    <glyph glyph-name="registered" unicode="&#xae;" 
d="M44 457q0 123 80.5 202t198.5 79q117 0 198 -79.5t81 -201.5t-81 -200t-198 -78q-118 0 -198.5 78t-80.5 200zM93 457q0 -103 65.5 -168t164.5 -65q100 0 164 64.5t64 168.5t-64 170t-164 66q-99 0 -164.5 -66t-65.5 -170zM391 317l-61 115h-14h-44v-115h-63v302h93
q74 0 108.5 -19t34.5 -75q0 -55 -54 -80l69 -128h-69zM382 524q0 45 -69 45h-41v-89h44q66 0 66 44z" />
    <glyph glyph-name="macron" unicode="&#xaf;" 
d="M473 623h-300v76h300v-76z" />
    <glyph glyph-name="degree" unicode="&#xb0;" 
d="M176 591q0 61 42.5 104t103.5 43q62 0 104.5 -43t42.5 -104t-43 -103.5t-104 -42.5t-103.5 42.5t-42.5 103.5zM249 591q0 -33 20.5 -56t52.5 -23t53.5 23t21.5 56q0 34 -21 57t-54 23q-32 0 -52.5 -23t-20.5 -57z" />
    <glyph glyph-name="plusminus" unicode="&#xb1;" 
d="M277 379v159h92v-159h215v-86h-215v-158h-92v158h-215v86h215zM584 0h-522v86h522v-86z" />
    <glyph glyph-name="twosuperior" unicode="&#xb2;" horiz-adv-x="647" 
d="M329 853q59 0 97 -29t38 -79q0 -58 -51 -117t-151 -127h211v-63h-299v59q115 92 164.5 144.5t49.5 98.5q0 28 -17 43.5t-45 15.5q-31 0 -51.5 -21t-19.5 -64h-73q-1 62 39.5 100.5t107.5 38.5z" />
    <glyph glyph-name="threesuperior" unicode="&#xb3;" 
d="M323 486q35 0 57 18t22 49q0 68 -95 68h-24v59h20q90 0 90 61q0 28 -19.5 43t-48.5 15q-70 0 -81 -77h-70q5 61 46 96t110 35q56 0 96.5 -27.5t40.5 -81.5q0 -29 -15.5 -53t-41.5 -37q32 -13 49.5 -40t17.5 -59q0 -60 -44.5 -92t-110.5 -32q-68 0 -108.5 39t-44.5 97h70
q6 -36 26.5 -58.5t57.5 -22.5z" />
    <glyph glyph-name="acute" unicode="&#xb4;" 
d="M426 725l-131 -116h-76l90 116h117z" />
    <glyph glyph-name="mu" unicode="&#xb5;" 
d="M101 -175q11 48 11 147v566h91v-316q0 -85 28 -120t88 -35q63 0 98 44.5t35 127.5v299h91v-538h-91v74q-23 -39 -57 -63t-72 -24q-77 0 -120 60v-66q0 -104 -12 -156h-90z" />
    <glyph glyph-name="mu" unicode="&#x3bc;" 
d="M101 -175q11 48 11 147v566h91v-316q0 -85 28 -120t88 -35q63 0 98 44.5t35 127.5v299h91v-538h-91v74q-23 -39 -57 -63t-72 -24q-77 0 -120 60v-66q0 -104 -12 -156h-90z" />
    <glyph glyph-name="paragraph" unicode="&#xb6;" 
d="M99 537q0 89 61 138.5t180 49.5h207v-815h-75v746h-122v-746h-75v451q-73 8 -124.5 52.5t-51.5 123.5z" />
    <glyph glyph-name="periodcentered" unicode="&#xb7;" 
d="M380 212h-115v115h115v-115z" />
    <glyph glyph-name="cedilla" unicode="&#xb8;" 
d="M222 -176l16 40q30 -14 58 -14q61 0 61 32q0 30 -44 30q-25 0 -38 -9l-30 17l51 83h53l-32 -51q15 3 30 3q36 0 56 -18.5t20 -49.5q0 -37 -33 -59.5t-75 -22.5q-54 0 -93 19z" />
    <glyph glyph-name="onesuperior" unicode="&#xb9;" horiz-adv-x="647" 
d="M489 438h-257v55h99v253h-89v50q49 1 71.5 10t36.5 40h55v-353h84v-55z" />
    <glyph glyph-name="ordmasculine" unicode="&#xba;" 
d="M248 580q0 -47 20 -73.5t54 -26.5t54.5 26.5t20.5 73.5q0 48 -20 74t-55 26q-34 0 -54 -25.5t-20 -74.5zM174 580q0 77 42.5 117.5t105.5 40.5t106 -40.5t43 -117.5q0 -76 -43 -116.5t-106 -40.5t-105.5 40.5t-42.5 116.5z" />
    <glyph glyph-name="guillemotright" unicode="&#xbb;" 
d="M352 273l-159 -229h-98l151 229l-151 228h98zM574 273l-159 -229h-98l151 229l-151 228h98z" />
    <glyph glyph-name="onequarter" unicode="&#xbc;" 
d="M84 317v314h-74v41q54 1 66.5 8t19.5 45h50v-408h-62zM166 0l242 725h49l-243 -725h-48zM515 0v103h-159v45l157 260h60v-255h49v-50h-49v-103h-58zM404 153h111v175z" />
    <glyph glyph-name="onehalf" unicode="&#xbd;" 
d="M84 317v314h-74v41q54 1 66.5 8t19.5 45h50v-408h-62zM134 0l242 725h49l-243 -725h-48zM387 0v47l45 57q85 108 104 144t19 65q0 59 -53 59q-52 0 -52 -81v-4h-61v4q0 124 117 124q53 0 82.5 -25t29.5 -74q0 -31 -18 -68.5t-38.5 -66.5t-64.5 -85l-37 -48h159v-48h-232z
" />
    <glyph glyph-name="threequarters" unicode="&#xbe;" 
d="M547 0v103h-159v45l157 260h60v-255h49v-50h-49v-103h-58zM436 153h111v175zM217 0l242 725h49l-243 -725h-48zM136 309q-54 0 -84 29t-30 85v2h59v-2q0 -71 56 -71q64 0 64 77t-78 77h-22v44h21q66 0 66 71q0 68 -54 68q-27 0 -38.5 -16t-11.5 -52v-2h-59v2
q0 111 112 111q114 0 114 -105q0 -75 -62 -94q76 -19 76 -103q0 -121 -129 -121z" />
    <glyph glyph-name="questiondown" unicode="&#xbf;" 
d="M466 31h93q-1 -97 -70.5 -157t-176.5 -60q-93 0 -159.5 44.5t-66.5 130.5q0 114 136 197q52 32 68 50.5t16 56.5v33h91v-36q0 -59 -26 -91.5t-94 -76.5q-47 -30 -70 -57.5t-23 -72.5q0 -46 36 -72t94 -26q76 0 112.5 41t39.5 96zM408 423h-115v115h115v-115z" />
    <glyph glyph-name="Agrave" unicode="&#xc0;" 
d="M374 725l238 -725h-102l-49 155h-277l-48 -155h-102l238 725h102zM323 598l-111 -354h221zM285 761l-148 113h129l109 -113h-90z" />
    <glyph glyph-name="Aacute" unicode="&#xc1;" 
d="M374 725l238 -725h-102l-49 155h-277l-48 -155h-102l238 725h102zM323 598l-111 -354h221zM510 874l-148 -113h-90l109 113h129z" />
    <glyph glyph-name="Acircumflex" unicode="&#xc2;" 
d="M374 725l238 -725h-102l-49 155h-277l-48 -155h-102l238 725h102zM323 598l-111 -354h221zM366 874l132 -113h-106l-69 56l-69 -56h-106l134 113h84z" />
    <glyph glyph-name="Atilde" unicode="&#xc3;" 
d="M374 725l238 -725h-102l-49 155h-277l-48 -155h-102l238 725h102zM323 598l-111 -354h221zM389 828q41 0 47 45h71q-9 -58 -40.5 -85.5t-75.5 -27.5q-32 0 -74.5 23.5t-61.5 23.5q-40 0 -45 -44h-71q9 56 39.5 84t75.5 28q32 0 73 -23.5t62 -23.5z" />
    <glyph glyph-name="Adieresis" unicode="&#xc4;" 
d="M374 725l238 -725h-102l-49 155h-277l-48 -155h-102l238 725h102zM323 598l-111 -354h221zM163 868h91v-99h-91v99zM392 868h91v-99h-91v99z" />
    <glyph glyph-name="Aring" unicode="&#xc5;" 
d="M374 725l238 -725h-102l-49 155h-277l-48 -155h-102l238 725h102zM323 598l-111 -354h221zM323 921q38 0 64.5 -24t26.5 -61t-26 -61t-65 -24q-38 0 -64.5 24.5t-26.5 60.5q0 37 26.5 61t64.5 24zM323 879q-17 0 -30.5 -12.5t-13.5 -30.5t13.5 -30t30.5 -12q18 0 30.5 12
t12.5 30t-12.5 30.5t-30.5 12.5z" />
    <glyph glyph-name="AE" unicode="&#xc6;" 
d="M300 725h302v-90h-207v-216h187v-90h-187v-239h207v-90h-302v155h-131l-57 -155h-102zM300 505l-98 -261h98v261z" />
    <glyph glyph-name="Ccedilla" unicode="&#xc7;" 
d="M227 -176l16 40q30 -14 58 -14q61 0 61 32q0 30 -44 30q-25 0 -38 -9l-30 17l42 69q-112 14 -169 114.5t-57 260.5q0 172 70 273.5t197 101.5q93 0 159 -66.5t84 -177.5h-97q-10 68 -47 111.5t-102 43.5q-79 0 -122.5 -74t-43.5 -212q0 -136 43 -212.5t125 -76.5
q66 0 103.5 40.5t47.5 109.5h95q-18 -109 -79.5 -170.5t-154.5 -66.5l-22 -36q15 3 30 3q36 0 56 -18.5t20 -49.5q0 -37 -33 -59.5t-75 -22.5q-54 0 -93 19z" />
    <glyph glyph-name="Egrave" unicode="&#xc8;" 
d="M112 0v725h432v-90h-337v-216h317v-90h-317v-239h337v-90h-432zM322 761l-148 113h129l109 -113h-90z" />
    <glyph glyph-name="Eacute" unicode="&#xc9;" 
d="M112 0v725h432v-90h-337v-216h317v-90h-317v-239h337v-90h-432zM506 874l-148 -113h-90l109 113h129z" />
    <glyph glyph-name="Ecircumflex" unicode="&#xca;" 
d="M112 0v725h432v-90h-337v-216h317v-90h-317v-239h337v-90h-432zM374 874l132 -113h-106l-69 56l-69 -56h-106l134 113h84z" />
    <glyph glyph-name="Edieresis" unicode="&#xcb;" 
d="M112 0v725h432v-90h-337v-216h317v-90h-317v-239h337v-90h-432zM174 868h91v-99h-91v99zM403 868h91v-99h-91v99z" />
    <glyph glyph-name="Igrave" unicode="&#xcc;" 
d="M92 635v90h461v-90h-183v-545h183v-90h-461v90h183v545h-183zM280 761l-148 113h129l109 -113h-90z" />
    <glyph glyph-name="Iacute" unicode="&#xcd;" 
d="M92 635v90h461v-90h-183v-545h183v-90h-461v90h183v545h-183zM514 874l-148 -113h-90l109 113h129z" />
    <glyph glyph-name="Icircumflex" unicode="&#xce;" 
d="M92 635v90h461v-90h-183v-545h183v-90h-461v90h183v545h-183zM366 874l132 -113h-106l-69 56l-69 -56h-106l134 113h84z" />
    <glyph glyph-name="Idieresis" unicode="&#xcf;" 
d="M92 635v90h461v-90h-183v-545h183v-90h-461v90h183v545h-183zM163 868h91v-99h-91v99zM392 868h91v-99h-91v99z" />
    <glyph glyph-name="Eth" unicode="&#xd0;" 
d="M105 725h124q372 0 372 -362q0 -100 -28.5 -172.5t-81 -113t-117 -59t-145.5 -18.5h-124v323h-62v90h62v312zM504 363q0 71 -16.5 122.5t-41.5 80t-64.5 44.5t-74 20.5t-81.5 4.5h-26v-222h168v-90h-168v-233h26q47 0 81.5 4.5t74 21t64.5 45t41.5 80t16.5 122.5z" />
    <glyph glyph-name="Ntilde" unicode="&#xd1;" 
d="M557 0h-142l-232 619v-619h-95v725h142l232 -617v617h95v-725zM386 828q41 0 47 45h71q-9 -58 -40.5 -85.5t-75.5 -27.5q-32 0 -74.5 23.5t-61.5 23.5q-40 0 -45 -44h-71q9 56 39.5 84t75.5 28q33 0 74 -23.5t61 -23.5z" />
    <glyph glyph-name="Ograve" unicode="&#xd2;" 
d="M323 738q132 0 201.5 -102.5t69.5 -272.5t-69.5 -273t-201.5 -103t-201.5 103t-69.5 273t69.5 272.5t201.5 102.5zM323 650q-173 0 -173 -287q0 -288 173 -288t173 288q0 287 -173 287zM303 761l-148 113h129l109 -113h-90z" />
    <glyph glyph-name="Oacute" unicode="&#xd3;" 
d="M323 738q132 0 201.5 -102.5t69.5 -272.5t-69.5 -273t-201.5 -103t-201.5 103t-69.5 273t69.5 272.5t201.5 102.5zM323 650q-173 0 -173 -287q0 -288 173 -288t173 288q0 287 -173 287zM505 874l-148 -113h-90l109 113h129z" />
    <glyph glyph-name="Ocircumflex" unicode="&#xd4;" 
d="M323 738q132 0 201.5 -102.5t69.5 -272.5t-69.5 -273t-201.5 -103t-201.5 103t-69.5 273t69.5 272.5t201.5 102.5zM323 650q-173 0 -173 -287q0 -288 173 -288t173 288q0 287 -173 287zM366 874l132 -113h-106l-69 56l-69 -56h-106l134 113h84z" />
    <glyph glyph-name="Otilde" unicode="&#xd5;" 
d="M323 738q132 0 201.5 -102.5t69.5 -272.5t-69.5 -273t-201.5 -103t-201.5 103t-69.5 273t69.5 272.5t201.5 102.5zM323 650q-173 0 -173 -287q0 -288 173 -288t173 288q0 287 -173 287zM389 828q41 0 47 45h71q-9 -58 -40.5 -85.5t-75.5 -27.5q-32 0 -74.5 23.5
t-61.5 23.5q-40 0 -45 -44h-71q9 56 39.5 84t75.5 28q32 0 73 -23.5t62 -23.5z" />
    <glyph glyph-name="Odieresis" unicode="&#xd6;" 
d="M323 738q132 0 201.5 -102.5t69.5 -272.5t-69.5 -273t-201.5 -103t-201.5 103t-69.5 273t69.5 272.5t201.5 102.5zM323 650q-173 0 -173 -287q0 -288 173 -288t173 288q0 287 -173 287zM163 868h91v-99h-91v99zM392 868h91v-99h-91v99z" />
    <glyph glyph-name="multiply" unicode="&#xd7;" 
d="M558 95l-65 -65l-173 173l-168 -167l-64 64l167 168l-167 168l64 64l168 -166l168 166l64 -64l-168 -168z" />
    <glyph glyph-name="Oslash" unicode="&#xd8;" 
d="M323 738q107 0 177 -73l50 73l44 -31l-60 -87q60 -99 60 -257q0 -170 -69.5 -273t-201.5 -103q-106 0 -173 69l-47 -69l-44 30l56 83q-63 99 -63 263q0 170 69.5 272.5t201.5 102.5zM323 650q-173 0 -173 -287q0 -108 25 -176l272 399q-43 64 -124 64zM496 363
q0 102 -22 168l-271 -398q43 -58 120 -58q173 0 173 288z" />
    <glyph glyph-name="Ugrave" unicode="&#xd9;" 
d="M79 725h95v-441q0 -113 30 -161t118 -48q89 0 119.5 52t30.5 168v430h95v-422q0 -165 -54 -240.5t-191 -75.5q-135 0 -189 69t-54 239v430zM290 761l-148 113h129l109 -113h-90z" />
    <glyph glyph-name="Uacute" unicode="&#xda;" 
d="M79 725h95v-441q0 -113 30 -161t118 -48q89 0 119.5 52t30.5 168v430h95v-422q0 -165 -54 -240.5t-191 -75.5q-135 0 -189 69t-54 239v430zM497 874l-148 -113h-90l109 113h129z" />
    <glyph glyph-name="Ucircumflex" unicode="&#xdb;" 
d="M79 725h95v-441q0 -113 30 -161t118 -48q89 0 119.5 52t30.5 168v430h95v-422q0 -165 -54 -240.5t-191 -75.5q-135 0 -189 69t-54 239v430zM366 874l132 -113h-106l-69 56l-69 -56h-106l134 113h84z" />
    <glyph glyph-name="Udieresis" unicode="&#xdc;" 
d="M79 725h95v-441q0 -113 30 -161t118 -48q89 0 119.5 52t30.5 168v430h95v-422q0 -165 -54 -240.5t-191 -75.5q-135 0 -189 69t-54 239v430zM163 868h91v-99h-91v99zM392 868h91v-99h-91v99z" />
    <glyph glyph-name="Yacute" unicode="&#xdd;" 
d="M323 370l186 355h111l-250 -453v-272h-95v272l-250 453h111zM509 874l-148 -113h-90l109 113h129z" />
    <glyph glyph-name="Thorn" unicode="&#xde;" 
d="M122 725h94v-124h83q132 0 206.5 -50.5t74.5 -176.5t-74.5 -176.5t-206.5 -50.5h-83v-147h-94v725zM311 511h-95v-273h95q84 0 127.5 27.5t43.5 108.5t-43.5 109t-127.5 28z" />
    <glyph glyph-name="germandbls" unicode="&#xdf;" 
d="M171 0h-91v493q0 245 235 245q94 0 150.5 -46.5t56.5 -125.5q0 -110 -108 -157q68 -17 109 -66.5t41 -129.5q0 -118 -69 -172t-179 -54q-57 0 -109 11l19 87q39 -13 94 -13q147 0 147 140q0 76 -54.5 112.5t-149.5 36.5h-3v82h2q81 0 124.5 28.5t43.5 81.5q0 49 -30 77.5
t-87 28.5q-76 0 -109 -41t-33 -130v-488z" />
    <glyph glyph-name="agrave" unicode="&#xe0;" 
d="M269 -13q-75 0 -125 41t-50 112q0 47 23.5 80t73 54.5t110 34t149.5 22.5v23q0 121 -121 121q-118 0 -128 -107h-94q6 84 70.5 132.5t152.5 48.5q112 0 162.5 -51.5t48.5 -163.5l-1 -131q-1 -105 7 -203h-88l-1 79q-54 -92 -189 -92zM457 243v15q-136 -13 -200 -37.5
t-64 -78.5q0 -38 26.5 -59.5t75.5 -21.5q71 0 116.5 41.5t45.5 140.5zM303 609l-130 116h116l91 -116h-77z" />
    <glyph glyph-name="aacute" unicode="&#xe1;" 
d="M269 -13q-75 0 -125 41t-50 112q0 47 23.5 80t73 54.5t110 34t149.5 22.5v23q0 121 -121 121q-118 0 -128 -107h-94q6 84 70.5 132.5t152.5 48.5q112 0 162.5 -51.5t48.5 -163.5l-1 -131q-1 -105 7 -203h-88l-1 79q-54 -92 -189 -92zM457 243v15q-136 -13 -200 -37.5
t-64 -78.5q0 -38 26.5 -59.5t75.5 -21.5q71 0 116.5 41.5t45.5 140.5zM488 725l-131 -116h-76l90 116h117z" />
    <glyph glyph-name="acircumflex" unicode="&#xe2;" 
d="M269 -13q-75 0 -125 41t-50 112q0 47 23.5 80t73 54.5t110 34t149.5 22.5v23q0 121 -121 121q-118 0 -128 -107h-94q6 84 70.5 132.5t152.5 48.5q112 0 162.5 -51.5t48.5 -163.5l-1 -131q-1 -105 7 -203h-88l-1 79q-54 -92 -189 -92zM457 243v15q-136 -13 -200 -37.5
t-64 -78.5q0 -38 26.5 -59.5t75.5 -21.5q71 0 116.5 41.5t45.5 140.5zM371 725l129 -116h-96l-78 54l-80 -54h-95l132 116h88z" />
    <glyph glyph-name="atilde" unicode="&#xe3;" 
d="M269 -13q-75 0 -125 41t-50 112q0 47 23.5 80t73 54.5t110 34t149.5 22.5v23q0 121 -121 121q-118 0 -128 -107h-94q6 84 70.5 132.5t152.5 48.5q112 0 162.5 -51.5t48.5 -163.5l-1 -131q-1 -105 7 -203h-88l-1 79q-54 -92 -189 -92zM457 243v15q-136 -13 -200 -37.5
t-64 -78.5q0 -38 26.5 -59.5t75.5 -21.5q71 0 116.5 41.5t45.5 140.5zM392 673q42 0 48 45h71q-9 -58 -41 -85.5t-76 -27.5q-32 0 -74 23.5t-61 23.5q-40 0 -45 -44h-71q9 56 39.5 84t75.5 28q32 0 73 -23.5t61 -23.5z" />
    <glyph glyph-name="adieresis" unicode="&#xe4;" 
d="M269 -13q-75 0 -125 41t-50 112q0 47 23.5 80t73 54.5t110 34t149.5 22.5v23q0 121 -121 121q-118 0 -128 -107h-94q6 84 70.5 132.5t152.5 48.5q112 0 162.5 -51.5t48.5 -163.5l-1 -131q-1 -105 7 -203h-88l-1 79q-54 -92 -189 -92zM457 243v15q-136 -13 -200 -37.5
t-64 -78.5q0 -38 26.5 -59.5t75.5 -21.5q71 0 116.5 41.5t45.5 140.5zM166 609v99h91v-99h-91zM395 708h91v-99h-91v99z" />
    <glyph glyph-name="aring" unicode="&#xe5;" 
d="M269 -13q-75 0 -125 41t-50 112q0 47 23.5 80t73 54.5t110 34t149.5 22.5v23q0 121 -121 121q-118 0 -128 -107h-94q6 84 70.5 132.5t152.5 48.5q112 0 162.5 -51.5t48.5 -163.5l-1 -131q-1 -105 7 -203h-88l-1 79q-54 -92 -189 -92zM457 243v15q-136 -13 -200 -37.5
t-64 -78.5q0 -38 26.5 -59.5t75.5 -21.5q71 0 116.5 41.5t45.5 140.5zM326 760q38 0 64.5 -24.5t26.5 -60.5q0 -37 -26 -61t-65 -24q-38 0 -64 24t-26 61q0 36 26.5 60.5t63.5 24.5zM326 718q-17 0 -30 -12.5t-13 -30.5t13 -30t30 -12q18 0 30.5 12t12.5 30t-13 30.5
t-30 12.5z" />
    <glyph glyph-name="ae" unicode="&#xe6;" 
d="M445 -13q-102 0 -149 96q-44 -96 -146 -96q-62 0 -97 46.5t-35 109.5q0 148 186 178l53 8v35q0 63 -16 86t-53 23q-38 0 -54.5 -24t-19.5 -71h-85q4 78 51 123.5t114 45.5q94 0 126 -70q49 69 125 69q90 0 136.5 -84t41.5 -227h-273q-1 -78 24.5 -127t68.5 -49
q39 0 59 22t28 75h86q-11 -79 -56 -124t-115 -45zM350 310h185q1 70 -21.5 115t-68.5 45q-45 0 -69 -42t-26 -118zM262 228v21v9l-59 -8q-98 -14 -98 -100q0 -39 16 -64.5t48 -25.5q41 0 67 41t26 127z" />
    <glyph glyph-name="ccedilla" unicode="&#xe7;" 
d="M237 -176l16 40q30 -14 58 -14q61 0 61 32q0 30 -44 30q-25 0 -38 -9l-30 17l42 68q-101 8 -158.5 84t-57.5 195q0 123 67 201.5t180 78.5q90 0 150 -56t66 -132h-93q-9 50 -43.5 81t-83.5 31q-63 0 -104.5 -53.5t-41.5 -150.5q0 -99 41.5 -152t104.5 -53q52 0 86.5 32
t44.5 79h95q-10 -73 -65.5 -124t-134.5 -60l-23 -37q15 3 30 3q36 0 56 -18.5t20 -49.5q0 -37 -33 -59.5t-75 -22.5q-54 0 -93 19z" />
    <glyph glyph-name="egrave" unicode="&#xe8;" 
d="M326 -13q-118 0 -181 77.5t-63 202.5q0 128 68 204.5t176 76.5q118 0 181.5 -81.5t58.5 -225.5h-387q0 -80 40.5 -129.5t104.5 -49.5q108 0 139 99h95q-17 -78 -78.5 -126t-153.5 -48zM326 472q-67 0 -105 -39t-41 -116h288q1 68 -36.5 111.5t-105.5 43.5zM294 609
l-130 116h116l91 -116h-77z" />
    <glyph glyph-name="eacute" unicode="&#xe9;" 
d="M326 -13q-118 0 -181 77.5t-63 202.5q0 128 68 204.5t176 76.5q118 0 181.5 -81.5t58.5 -225.5h-387q0 -80 40.5 -129.5t104.5 -49.5q108 0 139 99h95q-17 -78 -78.5 -126t-153.5 -48zM326 472q-67 0 -105 -39t-41 -116h288q1 68 -36.5 111.5t-105.5 43.5zM488 725
l-131 -116h-76l90 116h117z" />
    <glyph glyph-name="ecircumflex" unicode="&#xea;" 
d="M326 -13q-118 0 -181 77.5t-63 202.5q0 128 68 204.5t176 76.5q118 0 181.5 -81.5t58.5 -225.5h-387q0 -80 40.5 -129.5t104.5 -49.5q108 0 139 99h95q-17 -78 -78.5 -126t-153.5 -48zM326 472q-67 0 -105 -39t-41 -116h288q1 68 -36.5 111.5t-105.5 43.5zM368 725
l129 -116h-96l-78 54l-80 -54h-95l132 116h88z" />
    <glyph glyph-name="edieresis" unicode="&#xeb;" 
d="M326 -13q-118 0 -181 77.5t-63 202.5q0 128 68 204.5t176 76.5q118 0 181.5 -81.5t58.5 -225.5h-387q0 -80 40.5 -129.5t104.5 -49.5q108 0 139 99h95q-17 -78 -78.5 -126t-153.5 -48zM326 472q-67 0 -105 -39t-41 -116h288q1 68 -36.5 111.5t-105.5 43.5zM166 609v99h91
v-99h-91zM395 708h91v-99h-91v99z" />
    <glyph glyph-name="igrave" unicode="&#xec;" 
d="M134 538h244v-459h153v-79h-397v79h152v380h-152v79zM302 609l-130 116h116l91 -116h-77z" />
    <glyph glyph-name="iacute" unicode="&#xed;" 
d="M134 538h244v-459h153v-79h-397v79h152v380h-152v79zM492 725l-131 -116h-76l90 116h117z" />
    <glyph glyph-name="icircumflex" unicode="&#xee;" 
d="M134 538h244v-459h153v-79h-397v79h152v380h-152v79zM376 725l129 -116h-96l-78 54l-80 -54h-95l132 116h88z" />
    <glyph glyph-name="idieresis" unicode="&#xef;" 
d="M134 538h244v-459h153v-79h-397v79h152v380h-152v79zM171 609v99h91v-99h-91zM400 708h91v-99h-91v99z" />
    <glyph glyph-name="eth" unicode="&#xf0;" 
d="M361 687l69 43l46 -25l-75 -46q169 -132 169 -348q0 -160 -68 -242t-184 -82q-113 0 -177.5 73t-64.5 203q0 126 64 199.5t166 73.5q99 0 154 -78l1 1q-39 89 -135 154l-76 -47l-45 24l79 49q-26 14 -80 40l66 59q50 -24 91 -51zM319 67q68 0 110 49t42 147
q0 97 -42.5 145.5t-109.5 48.5q-71 0 -108.5 -51t-37.5 -143q0 -94 37 -145t109 -51z" />
    <glyph glyph-name="ntilde" unicode="&#xf1;" 
d="M206 538v-76q50 85 158 85q92 0 130.5 -54t38.5 -151v-342h-92v310q0 31 -1.5 50.5t-7.5 42.5t-17 36t-31.5 21.5t-49.5 8.5q-62 0 -95 -45.5t-33 -131.5v-292h-92v538h92zM390 673q42 0 48 45h71q-9 -58 -41 -85.5t-76 -27.5q-32 0 -74 23.5t-61 23.5q-40 0 -45 -44h-71
q9 56 39.5 84t75.5 28q32 0 73 -23.5t61 -23.5z" />
    <glyph glyph-name="ograve" unicode="&#xf2;" 
d="M171 267q0 -102 43 -152.5t109 -50.5t109 50.5t43 152.5t-43 152.5t-109 50.5t-109 -50.5t-43 -152.5zM74 267q0 137 73.5 208.5t175.5 71.5t175.5 -71.5t73.5 -208.5t-73.5 -208.5t-175.5 -71.5t-175.5 71.5t-73.5 208.5zM295 609l-130 116h116l91 -116h-77z" />
    <glyph glyph-name="oacute" unicode="&#xf3;" 
d="M171 267q0 -102 43 -152.5t109 -50.5t109 50.5t43 152.5t-43 152.5t-109 50.5t-109 -50.5t-43 -152.5zM74 267q0 137 73.5 208.5t175.5 71.5t175.5 -71.5t73.5 -208.5t-73.5 -208.5t-175.5 -71.5t-175.5 71.5t-73.5 208.5zM486 725l-131 -116h-76l90 116h117z" />
    <glyph glyph-name="ocircumflex" unicode="&#xf4;" 
d="M171 267q0 -102 43 -152.5t109 -50.5t109 50.5t43 152.5t-43 152.5t-109 50.5t-109 -50.5t-43 -152.5zM74 267q0 137 73.5 208.5t175.5 71.5t175.5 -71.5t73.5 -208.5t-73.5 -208.5t-175.5 -71.5t-175.5 71.5t-73.5 208.5zM367 725l129 -116h-96l-78 54l-80 -54h-95
l132 116h88z" />
    <glyph glyph-name="otilde" unicode="&#xf5;" 
d="M171 267q0 -102 43 -152.5t109 -50.5t109 50.5t43 152.5t-43 152.5t-109 50.5t-109 -50.5t-43 -152.5zM74 267q0 137 73.5 208.5t175.5 71.5t175.5 -71.5t73.5 -208.5t-73.5 -208.5t-175.5 -71.5t-175.5 71.5t-73.5 208.5zM388 673q42 0 48 45h71q-9 -58 -41 -85.5
t-76 -27.5q-32 0 -74 23.5t-61 23.5q-40 0 -45 -44h-71q9 56 39.5 84t75.5 28q32 0 73 -23.5t61 -23.5z" />
    <glyph glyph-name="odieresis" unicode="&#xf6;" 
d="M171 267q0 -102 43 -152.5t109 -50.5t109 50.5t43 152.5t-43 152.5t-109 50.5t-109 -50.5t-43 -152.5zM74 267q0 137 73.5 208.5t175.5 71.5t175.5 -71.5t73.5 -208.5t-73.5 -208.5t-175.5 -71.5t-175.5 71.5t-73.5 208.5zM163 609v99h91v-99h-91zM392 708h91v-99h-91v99
z" />
    <glyph glyph-name="divide" unicode="&#xf7;" 
d="M267 43v115h115v-115h-115zM267 380v115h115v-115h-115zM584 226h-522v86h522v-86z" />
    <glyph glyph-name="oslash" unicode="&#xf8;" 
d="M74 267q0 137 73.5 208.5t175.5 71.5q95 0 161 -59l43 49l40 -35l-46 -53q51 -74 51 -182q0 -137 -73.5 -208.5t-175.5 -71.5q-91 0 -157 54l-47 -54l-40 36l50 57q-55 73 -55 187zM171 267q0 -69 20 -115l237 272q-40 46 -105 46q-66 0 -109 -50.5t-43 -152.5zM475 267
q0 61 -18 108l-235 -270q40 -41 101 -41q66 0 109 50.5t43 152.5z" />
    <glyph glyph-name="ugrave" unicode="&#xf9;" 
d="M439 0v69q-52 -82 -158 -82q-92 0 -129.5 53.5t-37.5 151.5v346h92v-314q0 -31 1.5 -50.5t7 -42.5t16.5 -35.5t31 -21t49 -8.5q62 0 95 45t33 131v296h92v-538h-92zM297 609l-130 116h116l91 -116h-77z" />
    <glyph glyph-name="uacute" unicode="&#xfa;" 
d="M439 0v69q-52 -82 -158 -82q-92 0 -129.5 53.5t-37.5 151.5v346h92v-314q0 -31 1.5 -50.5t7 -42.5t16.5 -35.5t31 -21t49 -8.5q62 0 95 45t33 131v296h92v-538h-92zM482 725l-131 -116h-76l90 116h117z" />
    <glyph glyph-name="ucircumflex" unicode="&#xfb;" 
d="M439 0v69q-52 -82 -158 -82q-92 0 -129.5 53.5t-37.5 151.5v346h92v-314q0 -31 1.5 -50.5t7 -42.5t16.5 -35.5t31 -21t49 -8.5q62 0 95 45t33 131v296h92v-538h-92zM368 725l129 -116h-96l-78 54l-80 -54h-95l132 116h88z" />
    <glyph glyph-name="udieresis" unicode="&#xfc;" 
d="M439 0v69q-52 -82 -158 -82q-92 0 -129.5 53.5t-37.5 151.5v346h92v-314q0 -31 1.5 -50.5t7 -42.5t16.5 -35.5t31 -21t49 -8.5q62 0 95 45t33 131v296h92v-538h-92zM163 609v99h91v-99h-91zM392 708h91v-99h-91v99z" />
    <glyph glyph-name="yacute" unicode="&#xfd;" 
d="M183 -175h-106v79h97q44 0 63 14.5t39 69.5l4 12l-201 538h101l146 -415l143 415h95l-199 -561q-31 -86 -66 -119t-116 -33zM487 725l-131 -116h-76l90 116h117z" />
    <glyph glyph-name="thorn" unicode="&#xfe;" 
d="M201 725v-268q52 90 159 90q96 0 157 -75t61 -205t-61 -205t-157 -75q-107 0 -159 89v-251h-91v900h91zM197 267q0 -101 41 -152.5t103 -51.5q68 0 103.5 53.5t35.5 150.5t-35.5 150t-103.5 53q-62 0 -103 -51t-41 -152z" />
    <glyph glyph-name="ydieresis" unicode="&#xff;" 
d="M183 -175h-106v79h97q44 0 63 14.5t39 69.5l4 12l-201 538h101l146 -415l143 415h95l-199 -561q-31 -86 -66 -119t-116 -33zM163 609v99h91v-99h-91zM392 708h91v-99h-91v99z" />
    <glyph glyph-name="Amacron" unicode="&#x100;" 
d="M374 725l238 -725h-102l-49 155h-277l-48 -155h-102l238 725h102zM323 598l-111 -354h221zM473 779h-300v76h300v-76z" />
    <glyph glyph-name="amacron" unicode="&#x101;" 
d="M269 -13q-75 0 -125 41t-50 112q0 47 23.5 80t73 54.5t110 34t149.5 22.5v23q0 121 -121 121q-118 0 -128 -107h-94q6 84 70.5 132.5t152.5 48.5q112 0 162.5 -51.5t48.5 -163.5l-1 -131q-1 -105 7 -203h-88l-1 79q-54 -92 -189 -92zM457 243v15q-136 -13 -200 -37.5
t-64 -78.5q0 -38 26.5 -59.5t75.5 -21.5q71 0 116.5 41.5t45.5 140.5zM477 623h-300v76h300v-76z" />
    <glyph glyph-name="Abreve" unicode="&#x102;" 
d="M374 725l238 -725h-102l-49 155h-277l-48 -155h-102l238 725h102zM323 598l-111 -354h221zM403 874h78q-7 -55 -46.5 -86.5t-112.5 -31.5q-72 0 -111.5 32t-45.5 86h77q8 -58 81 -58q71 0 80 58z" />
    <glyph glyph-name="abreve" unicode="&#x103;" 
d="M269 -13q-75 0 -125 41t-50 112q0 47 23.5 80t73 54.5t110 34t149.5 22.5v23q0 121 -121 121q-118 0 -128 -107h-94q6 84 70.5 132.5t152.5 48.5q112 0 162.5 -51.5t48.5 -163.5l-1 -131q-1 -105 7 -203h-88l-1 79q-54 -92 -189 -92zM457 243v15q-136 -13 -200 -37.5
t-64 -78.5q0 -38 26.5 -59.5t75.5 -21.5q71 0 116.5 41.5t45.5 140.5zM485 725q-13 -132 -159 -132q-78 0 -116 36.5t-43 95.5h71q7 -72 89 -72q80 0 87 72h71z" />
    <glyph glyph-name="Aogonek" unicode="&#x104;" 
d="M374 725l238 -725h-1q-88 -44 -88 -82q0 -40 66 -40q29 0 49 9v-61q-29 -12 -69 -12q-52 0 -92 22.5t-40 68.5q0 57 72 95h1l-49 155h-277l-48 -155h-102l238 725h102zM323 598l-111 -354h221z" />
    <glyph glyph-name="aogonek" unicode="&#x105;" 
d="M269 -13q-75 0 -125 41t-50 112q0 47 23.5 80t73 54.5t110 34t149.5 22.5v23q0 121 -121 121q-118 0 -128 -107h-94q6 84 70.5 132.5t152.5 48.5q112 0 162.5 -51.5t48.5 -163.5l-1 -131q-1 -105 7 -203h-9q-88 -44 -88 -82q0 -40 66 -40q30 0 49 9v-61q-29 -12 -69 -12
q-51 0 -90 22.5t-39 68.5q0 55 91 95h1l-1 79q-54 -92 -189 -92zM457 243v15q-136 -13 -200 -37.5t-64 -78.5q0 -38 26.5 -59.5t75.5 -21.5q71 0 116.5 41.5t45.5 140.5z" />
    <glyph glyph-name="Cacute" unicode="&#x106;" 
d="M483 225h95q-18 -115 -85 -176.5t-167 -61.5q-128 0 -194 102.5t-66 274.5t70 273.5t197 101.5q93 0 159 -66.5t84 -177.5h-97q-10 68 -47 111.5t-102 43.5q-79 0 -122.5 -74t-43.5 -212q0 -136 43 -212.5t125 -76.5q66 0 103.5 40.5t47.5 109.5zM505 874l-148 -113h-90
l109 113h129z" />
    <glyph glyph-name="cacute" unicode="&#x107;" 
d="M333 547q90 0 150 -56t66 -132h-93q-9 50 -43.5 81t-83.5 31q-63 0 -104.5 -53.5t-41.5 -150.5q0 -99 41.5 -152t104.5 -53q52 0 86.5 32t44.5 79h95q-11 -81 -76 -133.5t-155 -52.5q-110 0 -174 77.5t-64 202.5q0 123 67 201.5t180 78.5zM484 725l-131 -116h-76l90 116
h117z" />
    <glyph glyph-name="Ccircumflex" unicode="&#x108;" 
d="M483 225h95q-18 -115 -85 -176.5t-167 -61.5q-128 0 -194 102.5t-66 274.5t70 273.5t197 101.5q93 0 159 -66.5t84 -177.5h-97q-10 68 -47 111.5t-102 43.5q-79 0 -122.5 -74t-43.5 -212q0 -136 43 -212.5t125 -76.5q66 0 103.5 40.5t47.5 109.5zM366 874l132 -113h-106
l-69 56l-69 -56h-106l134 113h84z" />
    <glyph glyph-name="ccircumflex" unicode="&#x109;" 
d="M333 547q90 0 150 -56t66 -132h-93q-9 50 -43.5 81t-83.5 31q-63 0 -104.5 -53.5t-41.5 -150.5q0 -99 41.5 -152t104.5 -53q52 0 86.5 32t44.5 79h95q-11 -81 -76 -133.5t-155 -52.5q-110 0 -174 77.5t-64 202.5q0 123 67 201.5t180 78.5zM378 725l129 -116h-96l-78 54
l-80 -54h-95l132 116h88z" />
    <glyph glyph-name="Cdotaccent" unicode="&#x10a;" 
d="M483 225h95q-18 -115 -85 -176.5t-167 -61.5q-128 0 -194 102.5t-66 274.5t70 273.5t197 101.5q93 0 159 -66.5t84 -177.5h-97q-10 68 -47 111.5t-102 43.5q-79 0 -122.5 -74t-43.5 -212q0 -136 43 -212.5t125 -76.5q66 0 103.5 40.5t47.5 109.5zM277 869h91v-99h-91v99z
" />
    <glyph glyph-name="cdotaccent" unicode="&#x10b;" 
d="M333 547q90 0 150 -56t66 -132h-93q-9 50 -43.5 81t-83.5 31q-63 0 -104.5 -53.5t-41.5 -150.5q0 -99 41.5 -152t104.5 -53q52 0 86.5 32t44.5 79h95q-11 -81 -76 -133.5t-155 -52.5q-110 0 -174 77.5t-64 202.5q0 123 67 201.5t180 78.5zM287 710h91v-99h-91v99z" />
    <glyph glyph-name="Ccaron" unicode="&#x10c;" 
d="M483 225h95q-18 -115 -85 -176.5t-167 -61.5q-128 0 -194 102.5t-66 274.5t70 273.5t197 101.5q93 0 159 -66.5t84 -177.5h-97q-10 68 -47 111.5t-102 43.5q-79 0 -122.5 -74t-43.5 -212q0 -136 43 -212.5t125 -76.5q66 0 103.5 40.5t47.5 109.5zM280 761l-132 113h106
l69 -56l69 56h106l-134 -113h-84z" />
    <glyph glyph-name="ccaron" unicode="&#x10d;" 
d="M333 547q90 0 150 -56t66 -132h-93q-9 50 -43.5 81t-83.5 31q-63 0 -104.5 -53.5t-41.5 -150.5q0 -99 41.5 -152t104.5 -53q52 0 86.5 32t44.5 79h95q-11 -81 -76 -133.5t-155 -52.5q-110 0 -174 77.5t-64 202.5q0 123 67 201.5t180 78.5zM287 609l-129 116h95l79 -53
l79 53h96l-132 -116h-88z" />
    <glyph glyph-name="Dcaron" unicode="&#x10e;" 
d="M493 363q0 71 -16.5 122.5t-41.5 80t-64.5 44.5t-74 20.5t-81.5 4.5h-26v-545h26q47 0 81.5 4.5t74 21t64.5 45t41.5 80t16.5 122.5zM94 725h124q372 0 372 -362q0 -100 -28.5 -172.5t-81 -113t-117 -59t-145.5 -18.5h-124v725zM277 761l-132 113h106l69 -56l69 56h106
l-134 -113h-84z" />
    <glyph glyph-name="dcaron" unicode="&#x10f;" 
d="M696 725l-70 -170h-58l30 170h98zM444 457v268h92v-725h-91l-1 76q-52 -89 -159 -89q-96 0 -156.5 75t-60.5 205t61 205t156 75q107 0 159 -90zM448 267q0 101 -41 152t-103 51q-68 0 -103.5 -53t-35.5 -150t35.5 -150.5t103.5 -53.5q62 0 103 52t41 152z" />
    <glyph glyph-name="Dcroat" unicode="&#x110;" 
d="M105 725h124q372 0 372 -362q0 -100 -28.5 -172.5t-81 -113t-117 -59t-145.5 -18.5h-124v323h-62v90h62v312zM504 363q0 71 -16.5 122.5t-41.5 80t-64.5 44.5t-74 20.5t-81.5 4.5h-26v-222h168v-90h-168v-233h26q47 0 81.5 4.5t74 21t64.5 45t41.5 80t16.5 122.5z" />
    <glyph glyph-name="dcroat" unicode="&#x111;" 
d="M444 643v82h92v-82h81v-75h-81v-568h-91l-1 76q-52 -89 -159 -89q-96 0 -156.5 75t-60.5 205t61 205t156 75q107 0 159 -90v111h-127v75h127zM448 267q0 101 -41 152t-103 51q-68 0 -103.5 -53t-35.5 -150t35.5 -150.5t103.5 -53.5q62 0 103 52t41 152z" />
    <glyph glyph-name="Emacron" unicode="&#x112;" 
d="M112 0v725h432v-90h-337v-216h317v-90h-317v-239h337v-90h-432zM485 779h-300v76h300v-76z" />
    <glyph glyph-name="emacron" unicode="&#x113;" 
d="M326 -13q-118 0 -181 77.5t-63 202.5q0 128 68 204.5t176 76.5q118 0 181.5 -81.5t58.5 -225.5h-387q0 -80 40.5 -129.5t104.5 -49.5q108 0 139 99h95q-17 -78 -78.5 -126t-153.5 -48zM326 472q-67 0 -105 -39t-41 -116h288q1 68 -36.5 111.5t-105.5 43.5zM476 623h-300
v76h300v-76z" />
    <glyph glyph-name="Ebreve" unicode="&#x114;" 
d="M112 0v725h432v-90h-337v-216h317v-90h-317v-239h337v-90h-432zM406 874h78q-7 -55 -46.5 -86.5t-112.5 -31.5q-72 0 -111.5 32t-45.5 86h77q8 -58 81 -58q71 0 80 58z" />
    <glyph glyph-name="ebreve" unicode="&#x115;" 
d="M326 -13q-118 0 -181 77.5t-63 202.5q0 128 68 204.5t176 76.5q118 0 181.5 -81.5t58.5 -225.5h-387q0 -80 40.5 -129.5t104.5 -49.5q108 0 139 99h95q-17 -78 -78.5 -126t-153.5 -48zM326 472q-67 0 -105 -39t-41 -116h288q1 68 -36.5 111.5t-105.5 43.5zM485 725
q-13 -132 -159 -132q-78 0 -116 36.5t-43 95.5h71q7 -72 89 -72q80 0 87 72h71z" />
    <glyph glyph-name="Edotaccent" unicode="&#x116;" 
d="M112 0v725h432v-90h-337v-216h317v-90h-317v-239h337v-90h-432zM299 869h91v-99h-91v99z" />
    <glyph glyph-name="edotaccent" unicode="&#x117;" 
d="M326 -13q-118 0 -181 77.5t-63 202.5q0 128 68 204.5t176 76.5q118 0 181.5 -81.5t58.5 -225.5h-387q0 -80 40.5 -129.5t104.5 -49.5q108 0 139 99h95q-17 -78 -78.5 -126t-153.5 -48zM326 472q-67 0 -105 -39t-41 -116h288q1 68 -36.5 111.5t-105.5 43.5zM280 710h91
v-99h-91v99z" />
    <glyph glyph-name="Eogonek" unicode="&#x118;" 
d="M112 0v725h432v-90h-337v-216h317v-90h-317v-239h337v-90q-88 -44 -88 -82q0 -40 65 -40q31 0 50 9v-61q-29 -12 -69 -12q-51 0 -90 22.5t-39 68.5q0 55 80 95h-341z" />
    <glyph glyph-name="eogonek" unicode="&#x119;" 
d="M558 161q-13 -58 -51 -100.5t-96 -60.5q-87 -44 -87 -82q0 -40 65 -40q31 0 50 9v-61q-29 -12 -69 -12q-51 0 -90 22.5t-39 68.5q0 49 58 83q-105 9 -161 85.5t-56 193.5q0 128 68 204.5t176 76.5q118 0 181.5 -81.5t58.5 -225.5h-387q0 -80 40.5 -129.5t104.5 -49.5
q108 0 139 99h95zM326 472q-67 0 -105 -39t-41 -116h288q1 68 -36.5 111.5t-105.5 43.5z" />
    <glyph glyph-name="Ecaron" unicode="&#x11a;" 
d="M112 0v725h432v-90h-337v-216h317v-90h-317v-239h337v-90h-432zM293 761l-132 113h106l69 -56l69 56h106l-134 -113h-84z" />
    <glyph glyph-name="ecaron" unicode="&#x11b;" 
d="M326 -13q-118 0 -181 77.5t-63 202.5q0 128 68 204.5t176 76.5q118 0 181.5 -81.5t58.5 -225.5h-387q0 -80 40.5 -129.5t104.5 -49.5q108 0 139 99h95q-17 -78 -78.5 -126t-153.5 -48zM326 472q-67 0 -105 -39t-41 -116h288q1 68 -36.5 111.5t-105.5 43.5zM280 609
l-129 116h95l79 -53l79 53h96l-132 -116h-88z" />
    <glyph glyph-name="Gcircumflex" unicode="&#x11c;" 
d="M325 650q-86 0 -130.5 -73.5t-44.5 -212.5q0 -138 43.5 -213.5t131.5 -75.5q169 0 169 188v23h-167v90h254v-376h-72l-4 91q-32 -55 -75.5 -79.5t-108.5 -24.5q-135 0 -202 102t-67 275t71.5 273.5t206.5 100.5q101 0 166.5 -63t82.5 -174h-98q-21 149 -156 149zM372 874
l132 -113h-106l-69 56l-69 -56h-106l134 113h84z" />
    <glyph glyph-name="gcircumflex" unicode="&#x11d;" 
d="M446 457v81h92v-471q0 -79 -10 -120.5t-33 -68.5q-28 -33 -79 -52t-109 -19q-89 0 -146.5 42t-69.5 120h97q11 -40 37.5 -61t82.5 -21q76 0 110 40q28 33 28 119v52q-51 -89 -159 -89q-97 0 -157 70t-60 199t60.5 199t156.5 70q107 0 159 -90zM450 278q0 100 -40 146
t-104 46q-139 0 -139 -192q0 -193 139 -193q63 0 103.5 47t40.5 146zM371 725l129 -116h-96l-78 54l-80 -54h-95l132 116h88z" />
    <glyph glyph-name="Gbreve" unicode="&#x11e;" 
d="M325 650q-86 0 -130.5 -73.5t-44.5 -212.5q0 -138 43.5 -213.5t131.5 -75.5q169 0 169 188v23h-167v90h254v-376h-72l-4 91q-32 -55 -75.5 -79.5t-108.5 -24.5q-135 0 -202 102t-67 275t71.5 273.5t206.5 100.5q101 0 166.5 -63t82.5 -174h-98q-21 149 -156 149zM409 874
h78q-7 -55 -46.5 -86.5t-112.5 -31.5q-72 0 -111.5 32t-45.5 86h77q8 -58 81 -58q71 0 80 58z" />
    <glyph glyph-name="gbreve" unicode="&#x11f;" 
d="M446 457v81h92v-471q0 -79 -10 -120.5t-33 -68.5q-28 -33 -79 -52t-109 -19q-89 0 -146.5 42t-69.5 120h97q11 -40 37.5 -61t82.5 -21q76 0 110 40q28 33 28 119v52q-51 -89 -159 -89q-97 0 -157 70t-60 199t60.5 199t156.5 70q107 0 159 -90zM450 278q0 100 -40 146
t-104 46q-139 0 -139 -192q0 -193 139 -193q63 0 103.5 47t40.5 146zM485 725q-13 -132 -159 -132q-78 0 -116 36.5t-43 95.5h71q7 -72 89 -72q80 0 87 72h71z" />
    <glyph glyph-name="Gdotaccent" unicode="&#x120;" 
d="M325 650q-86 0 -130.5 -73.5t-44.5 -212.5q0 -138 43.5 -213.5t131.5 -75.5q169 0 169 188v23h-167v90h254v-376h-72l-4 91q-32 -55 -75.5 -79.5t-108.5 -24.5q-135 0 -202 102t-67 275t71.5 273.5t206.5 100.5q101 0 166.5 -63t82.5 -174h-98q-21 149 -156 149zM292 869
h91v-99h-91v99z" />
    <glyph glyph-name="gdotaccent" unicode="&#x121;" 
d="M446 457v81h92v-471q0 -79 -10 -120.5t-33 -68.5q-28 -33 -79 -52t-109 -19q-89 0 -146.5 42t-69.5 120h97q11 -40 37.5 -61t82.5 -21q76 0 110 40q28 33 28 119v52q-51 -89 -159 -89q-97 0 -157 70t-60 199t60.5 199t156.5 70q107 0 159 -90zM450 278q0 100 -40 146
t-104 46q-139 0 -139 -192q0 -193 139 -193q63 0 103.5 47t40.5 146zM280 710h91v-99h-91v99z" />
    <glyph glyph-name="Gcommaaccent" unicode="&#x122;" 
d="M325 650q-86 0 -130.5 -73.5t-44.5 -212.5q0 -138 43.5 -213.5t131.5 -75.5q169 0 169 188v23h-167v90h254v-376h-72l-4 91q-32 -55 -75.5 -79.5t-108.5 -24.5q-135 0 -202 102t-67 275t71.5 273.5t206.5 100.5q101 0 166.5 -63t82.5 -174h-98q-21 149 -156 149z
M291 -125v89h95v-95l-44 -90h-54l39 96h-36z" />
    <glyph glyph-name="gcommaaccent" unicode="&#x123;" 
d="M350 686v-89h-95v96l44 89h54l-39 -96h36zM446 457v81h92v-471q0 -79 -10 -120.5t-33 -68.5q-28 -33 -79 -52t-109 -19q-89 0 -146.5 42t-69.5 120h97q11 -40 37.5 -61t82.5 -21q76 0 110 40q28 33 28 119v52q-51 -89 -159 -89q-97 0 -157 70t-60 199t60.5 199t156.5 70
q107 0 159 -90zM450 278q0 100 -40 146t-104 46q-139 0 -139 -192q0 -193 139 -193q63 0 103.5 47t40.5 146z" />
    <glyph glyph-name="Hcircumflex" unicode="&#x124;" 
d="M463 726h95v-726h-95v329h-280v-329h-95v726h95v-307h280v307zM366 874l132 -113h-106l-69 56l-69 -56h-106l134 113h84z" />
    <glyph glyph-name="hcircumflex" unicode="&#x125;" 
d="M365 547q92 0 130 -54t38 -151v-342h-92v310q0 31 -1.5 50.5t-7 42.5t-16.5 36t-31.5 22t-49.5 9q-62 0 -95.5 -46t-33.5 -132v-292h-92v725h92v-263q51 85 159 85zM205 884l132 -113h-106l-69 56l-69 -56h-106l134 113h84z" />
    <glyph glyph-name="Hbar" unicode="&#x126;" 
d="M462 726h95v-109h54v-76h-54v-541h-95v329h-280v-329h-95v541h-52v76h52v109h95v-109h280v109zM182 419h280v122h-280v-122z" />
    <glyph glyph-name="hbar" unicode="&#x127;" 
d="M365 547q92 0 130 -54t38 -151v-342h-92v310q0 31 -1.5 50.5t-7 42.5t-16.5 36t-31.5 22t-49.5 9q-62 0 -95.5 -46t-33.5 -132v-292h-92v568h-80v75h80v82h92v-82h128v-75h-128v-106q51 85 159 85z" />
    <glyph glyph-name="Itilde" unicode="&#x128;" 
d="M92 635v90h461v-90h-183v-545h183v-90h-461v90h183v545h-183zM389 828q41 0 47 45h71q-9 -58 -40.5 -85.5t-75.5 -27.5q-32 0 -74.5 23.5t-61.5 23.5q-40 0 -45 -44h-71q9 56 39.5 84t75.5 28q32 0 73 -23.5t62 -23.5z" />
    <glyph glyph-name="itilde" unicode="&#x129;" 
d="M134 538h244v-459h153v-79h-397v79h152v380h-152v79zM396 673q42 0 48 45h71q-9 -58 -41 -85.5t-76 -27.5q-32 0 -74 23.5t-61 23.5q-40 0 -45 -44h-71q9 56 39.5 84t75.5 28q32 0 73 -23.5t61 -23.5z" />
    <glyph glyph-name="Imacron" unicode="&#x12a;" 
d="M92 635v90h461v-90h-183v-545h183v-90h-461v90h183v545h-183zM473 779h-300v76h300v-76z" />
    <glyph glyph-name="imacron" unicode="&#x12b;" 
d="M134 538h244v-459h153v-79h-397v79h152v380h-152v79zM481 623h-300v76h300v-76z" />
    <glyph glyph-name="Ibreve" unicode="&#x12c;" 
d="M92 635v90h461v-90h-183v-545h183v-90h-461v90h183v545h-183zM403 874h78q-7 -55 -46.5 -86.5t-112.5 -31.5q-72 0 -111.5 32t-45.5 86h77q8 -58 81 -58q71 0 80 58z" />
    <glyph glyph-name="ibreve" unicode="&#x12d;" 
d="M134 538h244v-459h153v-79h-397v79h152v380h-152v79zM490 725q-13 -132 -159 -132q-78 0 -116 36.5t-43 95.5h71q7 -72 89 -72q80 0 87 72h71z" />
    <glyph glyph-name="Iogonek" unicode="&#x12e;" 
d="M279 0h-187v90h183v545h-183v90h461v-90h-183v-545h183v-90h-183q-88 -44 -88 -82q0 -40 65 -40q31 0 50 9v-61q-29 -12 -69 -12q-51 0 -90 22.5t-39 68.5q0 55 80 95z" />
    <glyph glyph-name="iogonek" unicode="&#x12f;" 
d="M134 538h244v-459h153v-79h-151q-88 -44 -88 -82q0 -40 65 -40q31 0 50 9v-61q-29 -12 -69 -12q-51 0 -90 22.5t-39 68.5q0 55 80 95h-155v79h152v380h-152v79zM286 725h92v-109h-92v109z" />
    <glyph glyph-name="Idotaccent" unicode="&#x130;" 
d="M92 635v90h461v-90h-183v-545h183v-90h-461v90h183v545h-183zM277 869h91v-99h-91v99z" />
    <glyph glyph-name="dotlessi" unicode="&#x131;" 
d="M134 538h244v-459h153v-79h-397v79h152v380h-152v79z" />
    <glyph glyph-name="Jcircumflex" unicode="&#x134;" 
d="M146 725h374v-495q0 -243 -211 -243q-98 0 -157 63.5t-59 173.5h95q0 -150 121 -150q58 0 87 32.5t29 124.5v404h-279v90zM377 874l132 -113h-106l-69 56l-69 -56h-106l134 113h84z" />
    <glyph glyph-name="jcircumflex" unicode="&#x135;" 
d="M183 538h227v-565q0 -85 -27 -116.5t-101 -31.5h-144v79h125q34 0 44.5 12.5t10.5 54.5v488h-135v79zM407 725l129 -116h-96l-78 54l-80 -54h-95l132 116h88z" />
    <glyph glyph-name="Kcommaaccent" unicode="&#x136;" 
d="M203 725v-347l259 347h112l-219 -283l247 -442h-109l-200 362l-90 -116v-246h-95v725h95zM295 -125v89h95v-95l-44 -90h-54l39 96h-36z" />
    <glyph glyph-name="kcommaaccent" unicode="&#x137;" 
d="M121 725h92v-432l238 245h118l-211 -209l232 -329h-105l-189 268l-83 -82v-186h-92v725zM285 -125v89h95v-95l-44 -90h-54l39 96h-36z" />
    <glyph glyph-name="Lacute" unicode="&#x139;" 
d="M220 725v-635h356v-90h-451v725h95zM363 874l-148 -113h-90l109 113h129z" />
    <glyph glyph-name="lacute" unicode="&#x13a;" 
d="M128 725h244v-646h153v-79h-397v79h152v568h-152v78zM520 874l-148 -113h-90l109 113h129z" />
    <glyph glyph-name="Lcommaaccent" unicode="&#x13b;" 
d="M220 725v-635h356v-90h-451v725h95zM318 -125v89h95v-95l-44 -90h-54l39 96h-36z" />
    <glyph glyph-name="lcommaaccent" unicode="&#x13c;" 
d="M128 725h244v-646h153v-79h-397v79h152v568h-152v78zM277 -125v89h95v-95l-44 -90h-54l39 96h-36z" />
    <glyph glyph-name="Lcaron" unicode="&#x13d;" 
d="M220 725v-635h356v-90h-451v725h95zM477 725l-70 -170h-58l30 170h98z" />
    <glyph glyph-name="lcaron" unicode="&#x13e;" 
d="M555 725l-70 -170h-58l30 170h98zM128 725h244v-646h153v-79h-397v79h152v568h-152v78z" />
    <glyph glyph-name="Ldot" unicode="&#x13f;" 
d="M376 437h91v-99h-91v99zM220 725v-635h356v-90h-451v725h95z" />
    <glyph glyph-name="ldot" unicode="&#x140;" 
d="M543 437h91v-99h-91v99zM128 725h244v-646h153v-79h-397v79h152v568h-152v78z" />
    <glyph glyph-name="Lslash" unicode="&#x141;" 
d="M264 725v-285l148 102v-91l-148 -102v-259h356v-90h-451v284l-134 -91v91l134 91v350h95z" />
    <glyph glyph-name="lslash" unicode="&#x142;" 
d="M128 725h244v-279l145 59v-77l-145 -59v-290h153v-79h-397v79h152v253l-162 -65v76l162 66v238h-152v78z" />
    <glyph glyph-name="Nacute" unicode="&#x143;" 
d="M557 0h-142l-232 619v-619h-95v725h142l232 -617v617h95v-725zM530 874l-148 -113h-90l109 113h129z" />
    <glyph glyph-name="nacute" unicode="&#x144;" 
d="M206 538v-76q50 85 158 85q92 0 130.5 -54t38.5 -151v-342h-92v310q0 31 -1.5 50.5t-7.5 42.5t-17 36t-31.5 21.5t-49.5 8.5q-62 0 -95 -45.5t-33 -131.5v-292h-92v538h92zM507 725l-131 -116h-76l90 116h117z" />
    <glyph glyph-name="Ncommaaccent" unicode="&#x145;" 
d="M557 0h-142l-232 619v-619h-95v725h142l232 -617v617h95v-725zM265 -125v89h95v-95l-44 -90h-54l39 96h-36z" />
    <glyph glyph-name="ncommaaccent" unicode="&#x146;" 
d="M206 538v-76q50 85 158 85q92 0 130.5 -54t38.5 -151v-342h-92v310q0 31 -1.5 50.5t-7.5 42.5t-17 36t-31.5 21.5t-49.5 8.5q-62 0 -95 -45.5t-33 -131.5v-292h-92v538h92zM277 -125v89h95v-95l-44 -90h-54l39 96h-36z" />
    <glyph glyph-name="Ncaron" unicode="&#x147;" 
d="M557 0h-142l-232 619v-619h-95v725h142l232 -617v617h95v-725zM305 761l-132 113h106l69 -56l69 56h106l-134 -113h-84z" />
    <glyph glyph-name="ncaron" unicode="&#x148;" 
d="M206 538v-76q50 85 158 85q92 0 130.5 -54t38.5 -151v-342h-92v310q0 31 -1.5 50.5t-7.5 42.5t-17 36t-31.5 21.5t-49.5 8.5q-62 0 -95 -45.5t-33 -131.5v-292h-92v538h92zM277 609l-129 116h95l79 -53l79 53h96l-132 -116h-88z" />
    <glyph glyph-name="Eng" unicode="&#x14a;" 
d="M462 0l-279 619v-619h-95v725h142l232 -527v527h95v-763q0 -84 -28 -116t-102 -32h-144v76h125q33 0 43.5 14t10.5 56v40z" />
    <glyph glyph-name="eng" unicode="&#x14b;" 
d="M533 342v-369q0 -85 -27 -116.5t-101 -31.5h-144v76h125q34 0 44.5 14t10.5 56v339q0 39 -3 62.5t-13 48t-32.5 36t-58.5 11.5q-62 0 -95 -45t-33 -131v-292h-92v538h92v-74q49 83 158 83q92 0 130.5 -54t38.5 -151z" />
    <glyph glyph-name="Omacron" unicode="&#x14c;" 
d="M323 738q132 0 201.5 -102.5t69.5 -272.5t-69.5 -273t-201.5 -103t-201.5 103t-69.5 273t69.5 272.5t201.5 102.5zM323 650q-173 0 -173 -287q0 -288 173 -288t173 288q0 287 -173 287zM473 779h-300v76h300v-76z" />
    <glyph glyph-name="omacron" unicode="&#x14d;" 
d="M171 267q0 -102 43 -152.5t109 -50.5t109 50.5t43 152.5t-43 152.5t-109 50.5t-109 -50.5t-43 -152.5zM74 267q0 137 73.5 208.5t175.5 71.5t175.5 -71.5t73.5 -208.5t-73.5 -208.5t-175.5 -71.5t-175.5 71.5t-73.5 208.5zM473 623h-300v76h300v-76z" />
    <glyph glyph-name="Obreve" unicode="&#x14e;" 
d="M323 738q132 0 201.5 -102.5t69.5 -272.5t-69.5 -273t-201.5 -103t-201.5 103t-69.5 273t69.5 272.5t201.5 102.5zM323 650q-173 0 -173 -287q0 -288 173 -288t173 288q0 287 -173 287zM403 874h78q-7 -55 -46.5 -86.5t-112.5 -31.5q-72 0 -111.5 32t-45.5 86h77
q8 -58 81 -58q71 0 80 58z" />
    <glyph glyph-name="obreve" unicode="&#x14f;" 
d="M171 267q0 -102 43 -152.5t109 -50.5t109 50.5t43 152.5t-43 152.5t-109 50.5t-109 -50.5t-43 -152.5zM74 267q0 137 73.5 208.5t175.5 71.5t175.5 -71.5t73.5 -208.5t-73.5 -208.5t-175.5 -71.5t-175.5 71.5t-73.5 208.5zM482 725q-13 -132 -159 -132q-78 0 -116 36.5
t-43 95.5h71q7 -72 89 -72q80 0 87 72h71z" />
    <glyph glyph-name="Ohungarumlaut" unicode="&#x150;" 
d="M323 738q132 0 201.5 -102.5t69.5 -272.5t-69.5 -273t-201.5 -103t-201.5 103t-69.5 273t69.5 272.5t201.5 102.5zM323 650q-173 0 -173 -287q0 -288 173 -288t173 288q0 287 -173 287zM405 874l-148 -113h-90l109 113h129zM572 874l-148 -113h-91l110 113h129z" />
    <glyph glyph-name="ohungarumlaut" unicode="&#x151;" 
d="M171 267q0 -102 43 -152.5t109 -50.5t109 50.5t43 152.5t-43 152.5t-109 50.5t-109 -50.5t-43 -152.5zM74 267q0 137 73.5 208.5t175.5 71.5t175.5 -71.5t73.5 -208.5t-73.5 -208.5t-175.5 -71.5t-175.5 71.5t-73.5 208.5zM394 725l-131 -116h-76l90 116h117zM552 725
l-130 -116h-77l91 116h116z" />
    <glyph glyph-name="OE" unicode="&#x152;" 
d="M223 738q48 0 81 -33v20h302v-90h-208v-216h188v-90h-188v-239h208v-90h-302v20q-33 -33 -81 -33q-99 0 -142 97t-43 279t43 278.5t142 96.5zM223 650q-48 0 -67.5 -71.5t-19.5 -215.5t19.5 -216t67.5 -72t67.5 72t19.5 216t-19.5 215.5t-67.5 71.5z" />
    <glyph glyph-name="oe" unicode="&#x153;" 
d="M195 547q87 0 127 -76q44 75 126 75q90 0 134.5 -83.5t39.5 -227.5h-265q-1 -79 22.5 -127t66.5 -48q38 0 57.5 23.5t24.5 72.5h86q-7 -78 -51.5 -123.5t-114.5 -45.5q-88 0 -128 70q-40 -70 -125 -70q-91 0 -132.5 76t-41.5 202t41.5 204t132.5 78zM195 473
q-86 0 -86 -208q0 -205 86 -205q45 0 63.5 50t18.5 151q0 212 -82 212zM357 310h177q1 72 -19.5 118.5t-66.5 46.5q-88 0 -91 -165z" />
    <glyph glyph-name="Racute" unicode="&#x154;" 
d="M481 0l-142 306q-17 -1 -53 -1h-82v-305h-95v725h177q65 0 111.5 -8.5t87 -30t61 -63.5t20.5 -105q0 -153 -131 -194l154 -324h-108zM297 635h-93v-240h93q42 0 68 3.5t52.5 15t38.5 37t12 65.5q0 33 -9 55.5t-22.5 35t-38 19t-46 8t-55.5 1.5zM481 874l-148 -113h-90
l109 113h129z" />
    <glyph glyph-name="racute" unicode="&#x155;" 
d="M86 538h243v-96q20 45 57.5 70.5t86.5 25.5h92v-84h-91q-143 0 -143 -186v-189h184v-79h-428v79h152v380h-153v79zM516 725l-131 -116h-76l90 116h117z" />
    <glyph glyph-name="Rcommaaccent" unicode="&#x156;" 
d="M481 0l-142 306q-17 -1 -53 -1h-82v-305h-95v725h177q65 0 111.5 -8.5t87 -30t61 -63.5t20.5 -105q0 -153 -131 -194l154 -324h-108zM297 635h-93v-240h93q42 0 68 3.5t52.5 15t38.5 37t12 65.5q0 33 -9 55.5t-22.5 35t-38 19t-46 8t-55.5 1.5zM284 -125v89h95v-95
l-44 -90h-54l39 96h-36z" />
    <glyph glyph-name="rcommaaccent" unicode="&#x157;" 
d="M86 538h243v-96q20 45 57.5 70.5t86.5 25.5h92v-84h-91q-143 0 -143 -186v-189h184v-79h-428v79h152v380h-153v79zM235 -125v89h95v-95l-44 -90h-54l39 96h-36z" />
    <glyph glyph-name="Rcaron" unicode="&#x158;" 
d="M481 0l-142 306q-17 -1 -53 -1h-82v-305h-95v725h177q65 0 111.5 -8.5t87 -30t61 -63.5t20.5 -105q0 -153 -131 -194l154 -324h-108zM297 635h-93v-240h93q42 0 68 3.5t52.5 15t38.5 37t12 65.5q0 33 -9 55.5t-22.5 35t-38 19t-46 8t-55.5 1.5zM276 761l-132 113h106
l69 -56l69 56h106l-134 -113h-84z" />
    <glyph glyph-name="rcaron" unicode="&#x159;" 
d="M86 538h243v-96q20 45 57.5 70.5t86.5 25.5h92v-84h-91q-143 0 -143 -186v-189h184v-79h-428v79h152v380h-153v79zM301 609l-129 116h95l79 -53l79 53h96l-132 -116h-88z" />
    <glyph glyph-name="Sacute" unicode="&#x15a;" 
d="M265 342q-79 17 -131 66.5t-52 130.5q0 91 68.5 145t169.5 54q92 0 161 -51.5t80 -152.5h-94q-8 60 -51.5 88t-100.5 28q-55 0 -95 -27.5t-40 -80.5q0 -84 105 -108l72 -16q102 -23 160.5 -71.5t58.5 -143.5q0 -99 -69 -157.5t-176 -58.5q-111 0 -183.5 65.5t-78.5 173.5
h94q7 -72 53.5 -111.5t117.5 -39.5q59 0 102.5 31.5t43.5 89.5q0 96 -136 127zM494 874l-148 -113h-90l109 113h129z" />
    <glyph glyph-name="sacute" unicode="&#x15b;" 
d="M530 391h-96q-16 80 -120 80q-45 0 -76.5 -17.5t-31.5 -51.5q0 -30 20 -46.5t61 -25.5l60 -12q31 -6 56 -13t51.5 -20t44.5 -29.5t29.5 -42t11.5 -56.5q0 -82 -61 -126t-154 -44q-98 0 -155 51.5t-65 122.5h97q19 -98 125 -98q50 0 85 20t35 63q0 67 -113 87l-67 13
q-152 30 -152 152q0 72 63 110.5t140 38.5q85 0 141 -41.5t71 -114.5zM471 725l-131 -116h-76l90 116h117z" />
    <glyph glyph-name="Scircumflex" unicode="&#x15c;" 
d="M265 342q-79 17 -131 66.5t-52 130.5q0 91 68.5 145t169.5 54q92 0 161 -51.5t80 -152.5h-94q-8 60 -51.5 88t-100.5 28q-55 0 -95 -27.5t-40 -80.5q0 -84 105 -108l72 -16q102 -23 160.5 -71.5t58.5 -143.5q0 -99 -69 -157.5t-176 -58.5q-111 0 -183.5 65.5t-78.5 173.5
h94q7 -72 53.5 -111.5t117.5 -39.5q59 0 102.5 31.5t43.5 89.5q0 96 -136 127zM361 874l132 -113h-106l-69 56l-69 -56h-106l134 113h84z" />
    <glyph glyph-name="scircumflex" unicode="&#x15d;" 
d="M530 391h-96q-16 80 -120 80q-45 0 -76.5 -17.5t-31.5 -51.5q0 -30 20 -46.5t61 -25.5l60 -12q31 -6 56 -13t51.5 -20t44.5 -29.5t29.5 -42t11.5 -56.5q0 -82 -61 -126t-154 -44q-98 0 -155 51.5t-65 122.5h97q19 -98 125 -98q50 0 85 20t35 63q0 67 -113 87l-67 13
q-152 30 -152 152q0 72 63 110.5t140 38.5q85 0 141 -41.5t71 -114.5zM364 725l129 -116h-96l-78 54l-80 -54h-95l132 116h88z" />
    <glyph glyph-name="Scedilla" unicode="&#x15e;" 
d="M247 -176l16 40q30 -14 58 -14q61 0 61 32q0 30 -44 30q-25 0 -38 -9l-30 17l41 68q-104 6 -170.5 70.5t-71.5 167.5h94q7 -72 53.5 -111.5t117.5 -39.5q59 0 102.5 31.5t43.5 89.5q0 96 -136 127l-79 19q-79 17 -131 66.5t-52 130.5q0 91 68.5 145t169.5 54
q92 0 161 -51.5t80 -152.5h-94q-8 60 -51.5 88t-100.5 28q-55 0 -95 -27.5t-40 -80.5q0 -84 105 -108l72 -16q102 -23 160.5 -71.5t58.5 -143.5q0 -91 -58.5 -148t-152.5 -66l-23 -37q15 3 30 3q36 0 56 -18.5t20 -49.5q0 -37 -33 -59.5t-75 -22.5q-54 0 -93 19z" />
    <glyph glyph-name="scedilla" unicode="&#x15f;" 
d="M530 391h-96q-16 80 -120 80q-45 0 -76.5 -17.5t-31.5 -51.5q0 -30 20 -46.5t61 -25.5l60 -12q31 -6 56 -13t51.5 -20t44.5 -29.5t29.5 -42t11.5 -56.5q0 -75 -51 -118t-132 -50l-23 -37q15 3 30 3q36 0 56 -18.5t20 -49.5q0 -37 -33.5 -59.5t-75.5 -22.5q-53 0 -92 19
l16 40q30 -14 58 -14q60 0 60 32q0 30 -43 30q-25 0 -38 -9l-31 17l42 68q-88 6 -139.5 56t-58.5 117h97q19 -98 125 -98q50 0 85 20t35 63q0 67 -113 87l-67 13q-152 30 -152 152q0 72 63 110.5t140 38.5q85 0 141 -41.5t71 -114.5z" />
    <glyph glyph-name="Scaron" unicode="&#x160;" 
d="M265 342q-79 17 -131 66.5t-52 130.5q0 91 68.5 145t169.5 54q92 0 161 -51.5t80 -152.5h-94q-8 60 -51.5 88t-100.5 28q-55 0 -95 -27.5t-40 -80.5q0 -84 105 -108l72 -16q102 -23 160.5 -71.5t58.5 -143.5q0 -99 -69 -157.5t-176 -58.5q-111 0 -183.5 65.5t-78.5 173.5
h94q7 -72 53.5 -111.5t117.5 -39.5q59 0 102.5 31.5t43.5 89.5q0 96 -136 127zM273 761l-132 113h106l69 -56l69 56h106l-134 -113h-84z" />
    <glyph glyph-name="scaron" unicode="&#x161;" 
d="M530 391h-96q-16 80 -120 80q-45 0 -76.5 -17.5t-31.5 -51.5q0 -30 20 -46.5t61 -25.5l60 -12q31 -6 56 -13t51.5 -20t44.5 -29.5t29.5 -42t11.5 -56.5q0 -82 -61 -126t-154 -44q-98 0 -155 51.5t-65 122.5h97q19 -98 125 -98q50 0 85 20t35 63q0 67 -113 87l-67 13
q-152 30 -152 152q0 72 63 110.5t140 38.5q85 0 141 -41.5t71 -114.5zM273 609l-129 116h95l79 -53l79 53h96l-132 -116h-88z" />
    <glyph glyph-name="uni0162" unicode="&#x162;" 
d="M275 0v635h-218v90h531v-90h-218v-635h-95zM275 -125v89h95v-95l-44 -90h-54l39 96h-36z" />
    <glyph glyph-name="uni0163" unicode="&#x163;" 
d="M197 538v135h92v-135h220v-79h-220v-311q0 -44 8.5 -56.5t45.5 -12.5h166v-79h-186q-75 0 -100.5 26t-25.5 109v324h-153v79h153zM204 -125v89h95v-95l-44 -90h-54l39 96h-36z" />
    <glyph glyph-name="Tcaron" unicode="&#x164;" 
d="M275 0v635h-218v90h531v-90h-218v-635h-95zM280 761l-132 113h106l69 -56l69 56h106l-134 -113h-84z" />
    <glyph glyph-name="tcaron" unicode="&#x165;" 
d="M590 725l-70 -170h-58l30 170h98zM197 538v135h92v-135h220v-79h-220v-311q0 -44 8.5 -56.5t45.5 -12.5h166v-79h-186q-75 0 -100.5 26t-25.5 109v324h-153v79h153z" />
    <glyph glyph-name="Tbar" unicode="&#x166;" 
d="M275 0v327h-151v76h151v232h-218v90h531v-90h-218v-232h151v-76h-151v-327h-95z" />
    <glyph glyph-name="tbar" unicode="&#x167;" 
d="M197 538v135h92v-135h220v-79h-220v-83h220v-76h-220v-152q0 -44 8.5 -56.5t45.5 -12.5h166v-79h-186q-75 0 -100.5 26t-25.5 109v165h-153v76h153v83h-153v79h153z" />
    <glyph glyph-name="Utilde" unicode="&#x168;" 
d="M79 725h95v-441q0 -113 30 -161t118 -48q89 0 119.5 52t30.5 168v430h95v-422q0 -165 -54 -240.5t-191 -75.5q-135 0 -189 69t-54 239v430zM389 828q41 0 47 45h71q-9 -58 -40.5 -85.5t-75.5 -27.5q-32 0 -74.5 23.5t-61.5 23.5q-40 0 -45 -44h-71q9 56 39.5 84t75.5 28
q32 0 73 -23.5t62 -23.5z" />
    <glyph glyph-name="utilde" unicode="&#x169;" 
d="M439 0v69q-52 -82 -158 -82q-92 0 -129.5 53.5t-37.5 151.5v346h92v-314q0 -31 1.5 -50.5t7 -42.5t16.5 -35.5t31 -21t49 -8.5q62 0 95 45t33 131v296h92v-538h-92zM388 673q42 0 48 45h71q-9 -58 -41 -85.5t-76 -27.5q-32 0 -74 23.5t-61 23.5q-40 0 -45 -44h-71
q9 56 39.5 84t75.5 28q32 0 73 -23.5t61 -23.5z" />
    <glyph glyph-name="Umacron" unicode="&#x16a;" 
d="M79 725h95v-441q0 -113 30 -161t118 -48q89 0 119.5 52t30.5 168v430h95v-422q0 -165 -54 -240.5t-191 -75.5q-135 0 -189 69t-54 239v430zM473 779h-300v76h300v-76z" />
    <glyph glyph-name="umacron" unicode="&#x16b;" 
d="M439 0v69q-52 -82 -158 -82q-92 0 -129.5 53.5t-37.5 151.5v346h92v-314q0 -31 1.5 -50.5t7 -42.5t16.5 -35.5t31 -21t49 -8.5q62 0 95 45t33 131v296h92v-538h-92zM477 623h-300v76h300v-76z" />
    <glyph glyph-name="Ubreve" unicode="&#x16c;" 
d="M79 725h95v-441q0 -113 30 -161t118 -48q89 0 119.5 52t30.5 168v430h95v-422q0 -165 -54 -240.5t-191 -75.5q-135 0 -189 69t-54 239v430zM409 874h78q-7 -55 -46.5 -86.5t-112.5 -31.5q-72 0 -111.5 32t-45.5 86h77q8 -58 81 -58q71 0 80 58z" />
    <glyph glyph-name="ubreve" unicode="&#x16d;" 
d="M439 0v69q-52 -82 -158 -82q-92 0 -129.5 53.5t-37.5 151.5v346h92v-314q0 -31 1.5 -50.5t7 -42.5t16.5 -35.5t31 -21t49 -8.5q62 0 95 45t33 131v296h92v-538h-92zM482 725q-13 -132 -159 -132q-78 0 -116 36.5t-43 95.5h71q7 -72 89 -72q80 0 87 72h71z" />
    <glyph glyph-name="Uring" unicode="&#x16e;" 
d="M79 725h95v-441q0 -113 30 -161t118 -48q89 0 119.5 52t30.5 168v430h95v-422q0 -165 -54 -240.5t-191 -75.5q-135 0 -189 69t-54 239v430zM323 921q38 0 64.5 -24t26.5 -61t-26 -61t-65 -24q-38 0 -64.5 24.5t-26.5 60.5q0 37 26.5 61t64.5 24zM323 879
q-17 0 -30.5 -12.5t-13.5 -30.5t13.5 -30t30.5 -12q18 0 30.5 12t12.5 30t-12.5 30.5t-30.5 12.5z" />
    <glyph glyph-name="uring" unicode="&#x16f;" 
d="M439 0v69q-52 -82 -158 -82q-92 0 -129.5 53.5t-37.5 151.5v346h92v-314q0 -31 1.5 -50.5t7 -42.5t16.5 -35.5t31 -21t49 -8.5q62 0 95 45t33 131v296h92v-538h-92zM322 760q38 0 64.5 -24.5t26.5 -60.5q0 -37 -26 -61t-65 -24q-38 0 -64 24t-26 61q0 36 26.5 60.5
t63.5 24.5zM322 718q-17 0 -30 -12.5t-13 -30.5t13 -30t30 -12q18 0 30.5 12t12.5 30t-13 30.5t-30 12.5z" />
    <glyph glyph-name="Uhungarumlaut" unicode="&#x170;" 
d="M79 725h95v-441q0 -113 30 -161t118 -48q89 0 119.5 52t30.5 168v430h95v-422q0 -165 -54 -240.5t-191 -75.5q-135 0 -189 69t-54 239v430zM423 874l-148 -113h-90l109 113h129zM590 874l-148 -113h-91l110 113h129z" />
    <glyph glyph-name="uhungarumlaut" unicode="&#x171;" 
d="M439 0v69q-52 -82 -158 -82q-92 0 -129.5 53.5t-37.5 151.5v346h92v-314q0 -31 1.5 -50.5t7 -42.5t16.5 -35.5t31 -21t49 -8.5q62 0 95 45t33 131v296h92v-538h-92zM396 725l-131 -116h-76l90 116h117zM554 725l-130 -116h-77l91 116h116z" />
    <glyph glyph-name="Uogonek" unicode="&#x172;" 
d="M79 725h95v-441q0 -113 30 -161t118 -48q89 0 119.5 52t30.5 168v430h95v-422q0 -134 -34.5 -208t-117.5 -97q-84 -42 -84 -80q0 -40 65 -40q30 0 50 9v-61q-29 -12 -69 -12q-51 0 -90 22.5t-39 68.5q0 48 56 82q-125 4 -175 73.5t-50 234.5v430z" />
    <glyph glyph-name="uogonek" unicode="&#x173;" 
d="M439 0v69q-52 -82 -158 -82q-92 0 -129.5 53.5t-37.5 151.5v346h92v-314q0 -31 1.5 -50.5t7 -42.5t16.5 -35.5t31 -21t49 -8.5q62 0 95 45t33 131v296h92v-538h-1q-88 -44 -88 -82q0 -40 65 -40q31 0 50 9v-61q-29 -12 -69 -12q-51 0 -90 22.5t-39 68.5q0 55 80 95z" />
    <glyph glyph-name="Wcircumflex" unicode="&#x174;" 
d="M374 504l80 -366l54 587h95l-73 -725h-123l-84 378l-84 -378h-124l-72 725h95l53 -587l80 366h103zM366 874l132 -113h-106l-69 56l-69 -56h-106l134 113h84z" />
    <glyph glyph-name="wcircumflex" unicode="&#x175;" 
d="M279 430h86l80 -290l55 398h93l-90 -538h-93l-88 325l-88 -325h-93l-90 538h94l54 -398zM376 725l129 -116h-96l-78 54l-80 -54h-95l132 116h88z" />
    <glyph glyph-name="Ycircumflex" unicode="&#x176;" 
d="M323 370l186 355h111l-250 -453v-272h-95v272l-250 453h111zM366 874l132 -113h-106l-69 56l-69 -56h-106l134 113h84z" />
    <glyph glyph-name="ycircumflex" unicode="&#x177;" 
d="M183 -175h-106v79h97q44 0 63 14.5t39 69.5l4 12l-201 538h101l146 -415l143 415h95l-199 -561q-31 -86 -66 -119t-116 -33zM368 725l129 -116h-96l-78 54l-80 -54h-95l132 116h88z" />
    <glyph glyph-name="Ydieresis" unicode="&#x178;" 
d="M323 370l186 355h111l-250 -453v-272h-95v272l-250 453h111zM163 868h91v-99h-91v99zM392 868h91v-99h-91v99z" />
    <glyph glyph-name="Zacute" unicode="&#x179;" 
d="M557 725v-90l-372 -545h376v-90h-485v90l373 545h-343v90h451zM497 874l-148 -113h-90l109 113h129z" />
    <glyph glyph-name="zacute" unicode="&#x17a;" 
d="M104 0v79l327 380h-308v79h420v-79l-327 -380h332v-79h-444zM486 725l-131 -116h-76l90 116h117z" />
    <glyph glyph-name="Zdotaccent" unicode="&#x17b;" 
d="M557 725v-90l-372 -545h376v-90h-485v90l373 545h-343v90h451zM277 869h91v-99h-91v99z" />
    <glyph glyph-name="zdotaccent" unicode="&#x17c;" 
d="M104 0v79l327 380h-308v79h420v-79l-327 -380h332v-79h-444zM299 710h91v-99h-91v99z" />
    <glyph glyph-name="Zcaron" unicode="&#x17d;" 
d="M557 725v-90l-372 -545h376v-90h-485v90l373 545h-343v90h451zM282 761l-132 113h106l69 -56l69 56h106l-134 -113h-84z" />
    <glyph glyph-name="zcaron" unicode="&#x17e;" 
d="M104 0v79l327 380h-308v79h420v-79l-327 -380h332v-79h-444zM301 609l-129 116h95l79 -53l79 53h96l-132 -116h-88z" />
    <glyph glyph-name="uni018F" unicode="&#x18f;" 
d="M323 738q132 0 201.5 -102.5t69.5 -272.5q0 -171 -69.5 -273.5t-201.5 -102.5q-135 0 -206 109.5t-66 301.5h446q-4 120 -50.5 187t-123.5 67q-64 0 -105.5 -42.5t-54.5 -104.5h-98q9 43 28 82t49.5 74t77.5 56t103 21zM323 75q148 0 171 221h-340q2 -94 44 -157.5
t125 -63.5z" />
    <glyph glyph-name="Scommaaccent" unicode="&#x218;" 
d="M265 342q-79 17 -131 66.5t-52 130.5q0 91 68.5 145t169.5 54q92 0 161 -51.5t80 -152.5h-94q-8 60 -51.5 88t-100.5 28q-55 0 -95 -27.5t-40 -80.5q0 -84 105 -108l72 -16q102 -23 160.5 -71.5t58.5 -143.5q0 -99 -69 -157.5t-176 -58.5q-111 0 -183.5 65.5t-78.5 173.5
h94q7 -72 53.5 -111.5t117.5 -39.5q59 0 102.5 31.5t43.5 89.5q0 96 -136 127zM300 -125v89h95v-95l-44 -90h-54l39 96h-36z" />
    <glyph glyph-name="scommaaccent" unicode="&#x219;" 
d="M530 391h-96q-16 80 -120 80q-45 0 -76.5 -17.5t-31.5 -51.5q0 -30 20 -46.5t61 -25.5l60 -12q31 -6 56 -13t51.5 -20t44.5 -29.5t29.5 -42t11.5 -56.5q0 -82 -61 -126t-154 -44q-98 0 -155 51.5t-65 122.5h97q19 -98 125 -98q50 0 85 20t35 63q0 67 -113 87l-67 13
q-152 30 -152 152q0 72 63 110.5t140 38.5q85 0 141 -41.5t71 -114.5zM288 -125v89h95v-95l-44 -90h-54l39 96h-36z" />
    <glyph glyph-name="Tcommaaccent" unicode="&#x21a;" 
d="M275 0v635h-218v90h531v-90h-218v-635h-95zM275 -125v89h95v-95l-44 -90h-54l39 96h-36z" />
    <glyph glyph-name="tcommaaccent" unicode="&#x21b;" 
d="M197 538v135h92v-135h220v-79h-220v-311q0 -44 8.5 -56.5t45.5 -12.5h166v-79h-186q-75 0 -100.5 26t-25.5 109v324h-153v79h153zM204 -125v89h95v-95l-44 -90h-54l39 96h-36z" />
    <glyph glyph-name="uni0232" unicode="&#x232;" 
d="M323 370l186 355h111l-250 -453v-272h-95v272l-250 453h111zM473 779h-300v76h300v-76z" />
    <glyph glyph-name="uni0233" unicode="&#x233;" 
d="M183 -175h-106v79h97q44 0 63 14.5t39 69.5l4 12l-201 538h101l146 -415l143 415h95l-199 -561q-31 -86 -66 -119t-116 -33zM473 623h-300v76h300v-76z" />
    <glyph glyph-name="dotlessj" unicode="&#x237;" 
d="M183 538h227v-565q0 -85 -27 -116.5t-101 -31.5h-144v79h125q34 0 44.5 12.5t10.5 54.5v488h-135v79z" />
    <glyph glyph-name="uni0259" unicode="&#x259;" 
d="M321 548q118 0 181 -77.5t63 -202.5q0 -128 -68 -204.5t-176 -76.5q-118 0 -181.5 81.5t-58.5 225.5h387q0 80 -40.5 129.5t-104.5 49.5q-108 0 -139 -99h-95q17 78 78.5 126t153.5 48zM321 63q66 0 104.5 39t41.5 116h-288q-1 -68 36.5 -111.5t105.5 -43.5z" />
    <glyph glyph-name="circumflex" unicode="&#x2c6;" 
d="M368 725l129 -116h-96l-78 54l-80 -54h-95l132 116h88z" />
    <glyph glyph-name="caron" unicode="&#x2c7;" 
d="M277 609l-129 116h95l79 -53l79 53h96l-132 -116h-88z" />
    <glyph glyph-name="breve" unicode="&#x2d8;" 
d="M482 725q-13 -132 -159 -132q-78 0 -116 36.5t-43 95.5h71q7 -72 89 -72q80 0 87 72h71z" />
    <glyph glyph-name="dotaccent" unicode="&#x2d9;" 
d="M277 710h91v-99h-91v99z" />
    <glyph glyph-name="ring" unicode="&#x2da;" 
d="M322 760q38 0 64.5 -24.5t26.5 -60.5q0 -37 -26 -61t-65 -24q-38 0 -64 24t-26 61q0 36 26.5 60.5t63.5 24.5zM322 718q-17 0 -30 -12.5t-13 -30.5t13 -30t30 -12q18 0 30.5 12t12.5 30t-13 30.5t-30 12.5z" />
    <glyph glyph-name="ogonek" unicode="&#x2db;" 
d="M304 0h91q-88 -44 -88 -82q0 -40 65 -40q30 0 50 9v-61q-29 -12 -69 -12q-51 0 -90 22.5t-39 68.5q0 55 80 95z" />
    <glyph glyph-name="tilde" unicode="&#x2dc;" 
d="M388 673q42 0 48 45h71q-9 -58 -41 -85.5t-76 -27.5q-32 0 -74 23.5t-61 23.5q-40 0 -45 -44h-71q9 56 39.5 84t75.5 28q32 0 73 -23.5t61 -23.5z" />
    <glyph glyph-name="hungarumlaut" unicode="&#x2dd;" 
d="M347 725l-131 -116h-76l90 116h117zM505 725l-130 -116h-77l91 116h116z" />
    <glyph glyph-name="Delta" unicode="&#x394;" 
d="M9 0l314 646l314 -646h-628zM513 76l-190 395l-189 -395h379z" />
    <glyph glyph-name="Delta" unicode="&#x2206;" 
d="M9 0l314 646l314 -646h-628zM513 76l-190 395l-189 -395h379z" />
    <glyph glyph-name="Omega" unicode="&#x3a9;" 
d="M322 727q116 0 200 -85.5t84 -232.5q0 -94 -45 -172.5t-115 -106.5v-55h156v-75h-229v185q69 13 107.5 77t38.5 153q0 109 -53.5 171t-143.5 62q-89 0 -142 -61.5t-53 -171.5q0 -89 38.5 -153t107.5 -77v-185h-229v75h156v55q-70 28 -115 106.5t-45 172.5
q0 147 83.5 232.5t198.5 85.5z" />
    <glyph glyph-name="Omega" unicode="&#x2126;" 
d="M322 727q116 0 200 -85.5t84 -232.5q0 -94 -45 -172.5t-115 -106.5v-55h156v-75h-229v185q69 13 107.5 77t38.5 153q0 109 -53.5 171t-143.5 62q-89 0 -142 -61.5t-53 -171.5q0 -89 38.5 -153t107.5 -77v-185h-229v75h156v55q-70 28 -115 106.5t-45 172.5
q0 147 83.5 232.5t198.5 85.5z" />
    <glyph glyph-name="pi" unicode="&#x3c0;" 
d="M219 0h-91v452h-74v86h511v-86h-76v-306q0 -43 10 -56t48 -13h24v-77h-44q-78 0 -103.5 26t-25.5 109v317h-179v-452z" />
    <glyph glyph-name="Wgrave" unicode="&#x1e80;" 
d="M374 504l80 -366l54 587h95l-73 -725h-123l-84 378l-84 -378h-124l-72 725h95l53 -587l80 366h103zM284 761l-148 113h129l109 -113h-90z" />
    <glyph glyph-name="wgrave" unicode="&#x1e81;" 
d="M279 430h86l80 -290l55 398h93l-90 -538h-93l-88 325l-88 -325h-93l-90 538h94l54 -398zM288 609l-130 116h116l91 -116h-77z" />
    <glyph glyph-name="Wacute" unicode="&#x1e82;" 
d="M374 504l80 -366l54 587h95l-73 -725h-123l-84 378l-84 -378h-124l-72 725h95l53 -587l80 366h103zM520 874l-148 -113h-90l109 113h129z" />
    <glyph glyph-name="wacute" unicode="&#x1e83;" 
d="M279 430h86l80 -290l55 398h93l-90 -538h-93l-88 325l-88 -325h-93l-90 538h94l54 -398zM493 725l-131 -116h-76l90 116h117z" />
    <glyph glyph-name="Wdieresis" unicode="&#x1e84;" 
d="M374 504l80 -366l54 587h95l-73 -725h-123l-84 378l-84 -378h-124l-72 725h95l53 -587l80 366h103zM163 868h91v-99h-91v99zM392 868h91v-99h-91v99z" />
    <glyph glyph-name="wdieresis" unicode="&#x1e85;" 
d="M279 430h86l80 -290l55 398h93l-90 -538h-93l-88 325l-88 -325h-93l-90 538h94l54 -398zM163 609v99h91v-99h-91zM392 708h91v-99h-91v99z" />
    <glyph glyph-name="uni1ECA" unicode="&#x1eca;" 
d="M92 635v90h461v-90h-183v-545h183v-90h-461v90h183v545h-183zM277 -76h91v-99h-91v99z" />
    <glyph glyph-name="uni1ECB" unicode="&#x1ecb;" 
d="M286 725h92v-109h-92v109zM134 538h244v-459h153v-79h-397v79h152v380h-152v79zM286 -76h91v-99h-91v99z" />
    <glyph glyph-name="uni1ECC" unicode="&#x1ecc;" 
d="M323 738q132 0 201.5 -102.5t69.5 -272.5t-69.5 -273t-201.5 -103t-201.5 103t-69.5 273t69.5 272.5t201.5 102.5zM323 650q-173 0 -173 -287q0 -288 173 -288t173 288q0 287 -173 287zM277 -76h91v-99h-91v99z" />
    <glyph glyph-name="uni1ECD" unicode="&#x1ecd;" 
d="M171 267q0 -102 43 -152.5t109 -50.5t109 50.5t43 152.5t-43 152.5t-109 50.5t-109 -50.5t-43 -152.5zM74 267q0 137 73.5 208.5t175.5 71.5t175.5 -71.5t73.5 -208.5t-73.5 -208.5t-175.5 -71.5t-175.5 71.5t-73.5 208.5zM277 -76h91v-99h-91v99z" />
    <glyph glyph-name="uni1EE4" unicode="&#x1ee4;" 
d="M79 725h95v-441q0 -113 30 -161t118 -48q89 0 119.5 52t30.5 168v430h95v-422q0 -165 -54 -240.5t-191 -75.5q-135 0 -189 69t-54 239v430zM277 -76h91v-99h-91v99z" />
    <glyph glyph-name="uni1EE5" unicode="&#x1ee5;" 
d="M439 0v69q-52 -82 -158 -82q-92 0 -129.5 53.5t-37.5 151.5v346h92v-314q0 -31 1.5 -50.5t7 -42.5t16.5 -35.5t31 -21t49 -8.5q62 0 95 45t33 131v296h92v-538h-92zM273 -76h91v-99h-91v99z" />
    <glyph glyph-name="Ygrave" unicode="&#x1ef2;" 
d="M323 370l186 355h111l-250 -453v-272h-95v272l-250 453h111zM279 761l-148 113h129l109 -113h-90z" />
    <glyph glyph-name="ygrave" unicode="&#x1ef3;" 
d="M183 -175h-106v79h97q44 0 63 14.5t39 69.5l4 12l-201 538h101l146 -415l143 415h95l-199 -561q-31 -86 -66 -119t-116 -33zM290 609l-130 116h116l91 -116h-77z" />
    <glyph glyph-name="endash" unicode="&#x2013;" 
d="M541 231h-436v86h436v-86z" />
    <glyph glyph-name="emdash" unicode="&#x2014;" 
d="M599 231h-552v86h552v-86z" />
    <glyph glyph-name="quoteleft" unicode="&#x2018;" 
d="M381 587v-115h-115v122l61 131h58l-52 -138h48z" />
    <glyph glyph-name="quoteright" unicode="&#x2019;" 
d="M265 610v115h115v-123l-61 -131h-58l53 139h-49z" />
    <glyph glyph-name="quotesinglbase" unicode="&#x201a;" 
d="M265 0v115h115v-123l-61 -131h-58l53 139h-49z" />
    <glyph glyph-name="quotedblleft" unicode="&#x201c;" 
d="M297 587v-115h-115v122l61 131h58l-52 -138h48zM465 587v-115h-115v122l61 131h58l-52 -138h48z" />
    <glyph glyph-name="quotedblright" unicode="&#x201d;" 
d="M349 610v115h115v-123l-61 -131h-58l53 139h-49zM181 610v115h115v-123l-61 -131h-58l53 139h-49z" />
    <glyph glyph-name="quotedblbase" unicode="&#x201e;" 
d="M181 0v115h115v-123l-61 -131h-58l53 139h-49zM349 0v115h115v-123l-61 -131h-58l53 139h-49z" />
    <glyph glyph-name="dagger" unicode="&#x2020;" 
d="M368 0h-90v409h-205v86h205v230h90v-230h205v-86h-205v-409z" />
    <glyph glyph-name="daggerdbl" unicode="&#x2021;" 
d="M368 280h205v-86h-205v-194h-90v194h-205v86h205v150h-205v86h205v209h90v-209h205v-86h-205v-150z" />
    <glyph glyph-name="bullet" unicode="&#x2022;" 
d="M143 279q0 73 52 125t124 52q78 0 131 -51.5t53 -125.5q0 -78 -52.5 -130.5t-131.5 -52.5q-73 0 -124.5 53t-51.5 130z" />
    <glyph glyph-name="ellipsis" unicode="&#x2026;" 
d="M165 0h-115v115h115v-115zM595 0h-115v115h115v-115zM380 0h-115v115h115v-115z" />
    <glyph glyph-name="guilsinglleft" unicode="&#x2039;" 
d="M342 44l-159 229l159 228h98l-150 -228l150 -229h-98z" />
    <glyph glyph-name="guilsinglright" unicode="&#x203a;" 
d="M463 273l-159 -229h-98l151 229l-151 228h98z" />
    <glyph glyph-name="fraction" unicode="&#x2044;" 
d="M112 0h-79l501 725h79z" />
    <glyph glyph-name="Euro" unicode="&#x20ac;" 
d="M495 228h95q-19 -116 -82.5 -178.5t-162.5 -62.5q-107 0 -167 73t-76 202h-94l43 64h45v38q0 33 1 49h-89l43 65h53q18 123 81 191.5t167 68.5q93 0 155.5 -65t79.5 -176h-96q-22 153 -142 153q-119 0 -147 -172h252l-43 -65h-216q-1 -16 -1 -49q0 -26 1 -38h178l-43 -64
h-130q24 -187 151 -187q119 0 144 153z" />
    <glyph glyph-name="trademark" unicode="&#x2122;" 
d="M117 354v324h-113v47h287v-47h-114v-324h-60zM485 483h-50l-61 194v-323h-59v371h87l57 -190l58 190h88v-371h-60v323z" />
    <glyph glyph-name="partialdiff" unicode="&#x2202;" 
d="M471 263q0 97 -42.5 145t-109.5 48q-71 0 -108.5 -50.5t-37.5 -142.5q0 -94 37 -145t109 -51q68 0 110 49t42 147zM318 -13q-113 0 -177.5 73t-64.5 203q0 126 64 199.5t166 73.5q99 0 154 -78l1 1q-30 84 -104 139.5t-164 58.5v81q165 -8 271 -129t106 -298
q0 -160 -68 -242t-184 -82z" />
    <glyph glyph-name="product" unicode="&#x220f;" 
d="M197 -175h-92v900h435v-900h-92v814h-251v-814z" />
    <glyph glyph-name="summation" unicode="&#x2211;" 
d="M56 -100l270 375l-270 375v75h522v-86h-413l266 -364l-266 -364h413v-86h-522v75z" />
    <glyph glyph-name="minus" unicode="&#x2212;" 
d="M51 312h544v-86h-544v86z" />
    <glyph glyph-name="radical" unicode="&#x221a;" 
d="M64 227l148 68l146 -347l126 777h90l-158 -911h-88l-161 361l-65 -29z" />
    <glyph glyph-name="infinity" unicode="&#x221e;" 
d="M470 394q66 0 107.5 -38t41.5 -98q0 -62 -40.5 -100.5t-106.5 -38.5q-74 0 -148 81q-75 -79 -151 -79q-65 0 -105.5 38.5t-40.5 98.5t41.5 98t108.5 38q77 0 147 -75q68 75 146 75zM175 196q47 0 101 63q-53 59 -98 59q-31 0 -50.5 -16.5t-19.5 -43.5q0 -26 19.5 -44
t47.5 -18zM468 318q-43 0 -97 -60q53 -62 100 -62q29 0 48 18t19 44q0 27 -19 43.5t-51 16.5z" />
    <glyph glyph-name="integral" unicode="&#x222b;" 
d="M276 139v333q0 145 38 205.5t111 60.5q37 0 63 -16.5t26 -48.5q0 -23 -14 -38t-37 -15q-22 0 -35.5 13t-13.5 33q0 16 4 26q-33 0 -43 -33.5t-10 -93.5q0 -11 1.5 -65t1.5 -96v-346q0 -137 -36.5 -194.5t-110.5 -57.5q-38 0 -63.5 16t-25.5 48q0 23 14 38t37 15
q22 0 35.5 -13.5t13.5 -33.5q0 -14 -4 -26q18 0 28.5 10t15 31t5.5 38.5t1 47.5q0 11 -1 65.5t-1 96.5z" />
    <glyph glyph-name="approxequal" unicode="&#x2248;" 
d="M436 379q28 0 47 18.5t22 50.5h85q-5 -67 -46 -108t-108 -41q-43 0 -118.5 34.5t-107.5 34.5q-28 0 -47.5 -18.5t-21.5 -50.5h-85q4 66 45.5 107.5t108.5 41.5q52 0 126 -34.5t100 -34.5zM436 192q28 0 47 18t22 50h85q-5 -66 -46 -107t-108 -41q-43 0 -118.5 34.5
t-107.5 34.5q-28 0 -47.5 -18.5t-21.5 -50.5h-85q4 66 45.5 107t108.5 41q52 0 126 -34t100 -34z" />
    <glyph glyph-name="notequal" unicode="&#x2260;" 
d="M574 124h-288l-86 -161l-75 37l67 124h-120v86h166l63 117h-229v87h276l84 155l74 -36l-64 -119h132v-87h-179l-63 -117h242v-86z" />
    <glyph glyph-name="lessequal" unicode="&#x2264;" 
d="M190 326l389 -122v-96l-514 179v78l514 184v-98zM62 0v86h522v-86h-522z" />
    <glyph glyph-name="greaterequal" unicode="&#x2265;" 
d="M456 326l-389 125v98l514 -184v-78l-514 -179v96zM584 0h-522v86h522v-86z" />
    <glyph glyph-name="lozenge" unicode="&#x25ca;" 
d="M326 596l-146 -255l146 -255l145 255zM80 341l246 421l240 -421l-240 -421z" />
    <glyph glyph-name="fi" unicode="&#xfb01;" 
d="M132 538v39q0 86 28.5 117t114.5 31h124v-76h-122q-33 0 -43.5 -13.5t-10.5 -56.5v-41h336v-538h-92v463h-244v-463h-91v463h-100v75h100zM467 725h92v-109h-92v109z" />
    <glyph glyph-name="fl" unicode="&#xfb02;" 
d="M132 538v39q0 86 28.5 117t114.5 31h284v-725h-92v649h-190q-33 0 -43.5 -13.5t-10.5 -56.5v-41h152v-75h-152v-463h-91v463h-100v75h100z" />
    <glyph glyph-name="apple" 
d="M143 279q0 73 52 125t124 52q78 0 131 -51.5t53 -125.5q0 -78 -52.5 -130.5t-131.5 -52.5q-73 0 -124.5 53t-51.5 130z" />
    <glyph glyph-name="f_i" 
d="M132 538v39q0 86 28.5 117t114.5 31h124v-76h-122q-33 0 -43.5 -13.5t-10.5 -56.5v-41h336v-538h-92v463h-244v-463h-91v463h-100v75h100zM467 725h92v-109h-92v109z" />
    <glyph glyph-name="f_l" 
d="M132 538v39q0 86 28.5 117t114.5 31h284v-725h-92v649h-190q-33 0 -43.5 -13.5t-10.5 -56.5v-41h152v-75h-152v-463h-91v463h-100v75h100z" />
    <glyph glyph-name="dot" 
d="M286 725h92v-109h-92v109z" />
    <glyph glyph-name="commaaccent" 
d="M275 -125v89h95v-95l-44 -90h-54l39 96h-36z" />
    <glyph glyph-name="caron.slovak" 
d="M387 725l-70 -170h-58l30 170h98z" />
    <glyph glyph-name="acute.case" 
d="M442 874l-148 -113h-90l109 113h129z" />
    <glyph glyph-name="breve.case" 
d="M403 874h78q-7 -55 -46.5 -86.5t-112.5 -31.5q-72 0 -111.5 32t-45.5 86h77q8 -58 81 -58q71 0 80 58z" />
    <glyph glyph-name="caron.case" 
d="M280 761l-132 113h106l69 -56l69 56h106l-134 -113h-84z" />
    <glyph glyph-name="cedilla.case" 
d="M222 -176l16 40q30 -14 58 -14q61 0 61 32q0 30 -44 30q-25 0 -38 -9l-30 17l51 83h53l-32 -51q15 3 30 3q36 0 56 -18.5t20 -49.5q0 -37 -33 -59.5t-75 -22.5q-54 0 -93 19z" />
    <glyph glyph-name="circumflex.case" 
d="M366 874l132 -113h-106l-69 56l-69 -56h-106l134 113h84z" />
    <glyph glyph-name="dieresis.case" 
d="M163 868h91v-99h-91v99zM392 868h91v-99h-91v99z" />
    <glyph glyph-name="dotaccent.case" 
d="M277 869h91v-99h-91v99z" />
    <glyph glyph-name="grave.case" 
d="M352 761l-148 113h129l109 -113h-90z" />
    <glyph glyph-name="hungarumlaut.case" 
d="M358 874l-148 -113h-90l109 113h129zM525 874l-148 -113h-91l110 113h129z" />
    <glyph glyph-name="macron.case" 
d="M473 779h-300v76h300v-76z" />
    <glyph glyph-name="ogonek.case" 
d="M304 0h91q-88 -44 -88 -82q0 -40 65 -40q30 0 50 9v-61q-29 -12 -69 -12q-51 0 -90 22.5t-39 68.5q0 55 80 95z" />
    <glyph glyph-name="ring.case" 
d="M323 921q38 0 64.5 -24t26.5 -61t-26 -61t-65 -24q-38 0 -64.5 24.5t-26.5 60.5q0 37 26.5 61t64.5 24zM323 879q-17 0 -30.5 -12.5t-13.5 -30.5t13.5 -30t30.5 -12q18 0 30.5 12t12.5 30t-12.5 30.5t-30.5 12.5z" />
    <glyph glyph-name="tilde.case" 
d="M389 828q41 0 47 45h71q-9 -58 -40.5 -85.5t-75.5 -27.5q-32 0 -74.5 23.5t-61.5 23.5q-40 0 -45 -44h-71q9 56 39.5 84t75.5 28q32 0 73 -23.5t62 -23.5z" />
    <glyph glyph-name="a.ss01" 
d="M448 267q0 101 -41 152t-103 51q-68 0 -103.5 -53t-35.5 -150t35.5 -150t103.5 -53q62 0 103 51.5t41 151.5zM444 457v81h92v-538h-91l-1 77q-52 -90 -159 -90q-96 0 -156.5 75t-60.5 205t60.5 205t156.5 75q107 0 159 -90z" />
    <glyph glyph-name="aacute.ss01" 
d="M488 725l-131 -116h-76l90 116h117zM448 267q0 101 -41 152t-103 51q-68 0 -103.5 -53t-35.5 -150t35.5 -150t103.5 -53q62 0 103 51.5t41 151.5zM444 457v81h92v-538h-91l-1 77q-52 -90 -159 -90q-96 0 -156.5 75t-60.5 205t60.5 205t156.5 75q107 0 159 -90z" />
    <glyph glyph-name="abreve.ss01" 
d="M448 267q0 101 -41 152t-103 51q-68 0 -103.5 -53t-35.5 -150t35.5 -150t103.5 -53q62 0 103 51.5t41 151.5zM444 457v81h92v-538h-91l-1 77q-52 -90 -159 -90q-96 0 -156.5 75t-60.5 205t60.5 205t156.5 75q107 0 159 -90zM485 725q-13 -132 -159 -132q-78 0 -116 36.5
t-43 95.5h71q7 -72 89 -72q80 0 87 72h71z" />
    <glyph glyph-name="acircumflex.ss01" 
d="M448 267q0 101 -41 152t-103 51q-68 0 -103.5 -53t-35.5 -150t35.5 -150t103.5 -53q62 0 103 51.5t41 151.5zM444 457v81h92v-538h-91l-1 77q-52 -90 -159 -90q-96 0 -156.5 75t-60.5 205t60.5 205t156.5 75q107 0 159 -90zM371 725l129 -116h-96l-78 54l-80 -54h-95
l132 116h88z" />
    <glyph glyph-name="adieresis.ss01" 
d="M448 267q0 101 -41 152t-103 51q-68 0 -103.5 -53t-35.5 -150t35.5 -150t103.5 -53q62 0 103 51.5t41 151.5zM444 457v81h92v-538h-91l-1 77q-52 -90 -159 -90q-96 0 -156.5 75t-60.5 205t60.5 205t156.5 75q107 0 159 -90zM166 609v99h91v-99h-91zM395 708h91v-99h-91
v99z" />
    <glyph glyph-name="agrave.ss01" 
d="M448 267q0 101 -41 152t-103 51q-68 0 -103.5 -53t-35.5 -150t35.5 -150t103.5 -53q62 0 103 51.5t41 151.5zM444 457v81h92v-538h-91l-1 77q-52 -90 -159 -90q-96 0 -156.5 75t-60.5 205t60.5 205t156.5 75q107 0 159 -90zM303 609l-130 116h116l91 -116h-77z" />
    <glyph glyph-name="amacron.ss01" 
d="M448 267q0 101 -41 152t-103 51q-68 0 -103.5 -53t-35.5 -150t35.5 -150t103.5 -53q62 0 103 51.5t41 151.5zM444 457v81h92v-538h-91l-1 77q-52 -90 -159 -90q-96 0 -156.5 75t-60.5 205t60.5 205t156.5 75q107 0 159 -90zM477 623h-300v76h300v-76z" />
    <glyph glyph-name="aogonek.ss01" 
d="M444 457v81h92v-538q-90 -45 -90 -85q0 -22 19 -32.5t47 -10.5q30 0 49 9v-61q-29 -12 -69 -12q-51 0 -90 24t-39 70q0 62 82 98l-1 77q-52 -90 -159 -90q-96 0 -156.5 75t-60.5 205t60.5 205t156.5 75q107 0 159 -90zM448 267q0 101 -41 152t-103 51q-68 0 -103.5 -53
t-35.5 -150t35.5 -150t103.5 -53q62 0 103 51.5t41 151.5z" />
    <glyph glyph-name="aring.ss01" 
d="M448 267q0 101 -41 152t-103 51q-68 0 -103.5 -53t-35.5 -150t35.5 -150t103.5 -53q62 0 103 51.5t41 151.5zM444 457v81h92v-538h-91l-1 77q-52 -90 -159 -90q-96 0 -156.5 75t-60.5 205t60.5 205t156.5 75q107 0 159 -90zM326 760q38 0 64.5 -24.5t26.5 -60.5
q0 -37 -26 -61t-65 -24q-38 0 -64 24t-26 61q0 36 26.5 60.5t63.5 24.5zM326 718q-17 0 -30 -12.5t-13 -30.5t13 -30t30 -12q18 0 30.5 12t12.5 30t-13 30.5t-30 12.5z" />
    <glyph glyph-name="atilde.ss01" 
d="M448 267q0 101 -41 152t-103 51q-68 0 -103.5 -53t-35.5 -150t35.5 -150t103.5 -53q62 0 103 51.5t41 151.5zM444 457v81h92v-538h-91l-1 77q-52 -90 -159 -90q-96 0 -156.5 75t-60.5 205t60.5 205t156.5 75q107 0 159 -90zM392 673q42 0 48 45h71q-9 -58 -41 -85.5
t-76 -27.5q-32 0 -74 23.5t-61 23.5q-40 0 -45 -44h-71q9 56 39.5 84t75.5 28q32 0 73 -23.5t61 -23.5z" />
    <glyph glyph-name="germandbls.ss03" 
d="M171 -175h-91v668q0 245 235 245q94 0 150.5 -46.5t56.5 -125.5q0 -110 -108 -157q68 -17 109 -66.5t41 -129.5q0 -118 -69 -172t-179 -54q-57 0 -109 11l19 87q39 -13 94 -13q147 0 147 140q0 76 -54.5 112.5t-149.5 36.5h-3v82h2q81 0 124.5 28.5t43.5 81.5
q0 49 -30 77.5t-87 28.5q-76 0 -109 -41t-33 -130v-663z" />
  </font>
</defs>
</svg>
